<svg xmlns="http://www.w3.org/2000/svg" viewBox="0 0 2004 1989" width="1000" height="993">
	<style>
		tspan { white-space:pre }
		.shp0 { fill: #ffffff } 
	</style>
	<path id="Path 0" class="shp0" d="M1012,54.55c21.72,0.18 45.8,0.81 53.5,1.38c7.7,0.58 21.2,1.76 30,2.62c8.8,0.86 22.97,2.46 31.5,3.56c8.53,1.09 24.72,3.56 36,5.47c11.28,1.92 27.92,5.07 37,7.02c9.08,1.94 23.7,5.34 32.5,7.54c8.8,2.2 24.33,6.42 34.5,9.37c10.17,2.95 27.95,8.58 39.5,12.51c11.55,3.93 29.33,10.43 39.5,14.44c10.17,4.01 25.92,10.54 35,14.51c9.08,3.97 27.08,12.5 40,18.94c12.92,6.44 29.8,15.24 37.5,19.55c7.7,4.31 20.08,11.46 27.5,15.9c7.42,4.43 24.3,15.28 37.5,24.1c13.2,8.82 31.88,21.96 41.5,29.2c9.63,7.24 23.35,17.95 30.5,23.8c7.15,5.85 19.3,16.12 27,22.82c7.7,6.7 26.43,24.56 41.62,39.69c15.19,15.13 33.19,33.84 40,41.57c6.81,7.73 18.01,20.93 24.88,29.34c6.88,8.41 18.3,23.01 25.38,32.45c7.08,9.44 19.92,27.73 28.52,40.66c8.6,12.93 19.28,29.57 23.72,37c4.44,7.42 11.6,19.8 15.91,27.5c4.31,7.7 13.11,24.58 19.55,37.5c6.44,12.92 14.97,30.92 18.94,40c3.97,9.08 10.5,24.83 14.5,35c4,10.17 10.5,27.95 14.45,39.5c3.94,11.55 9.58,29.33 12.53,39.5c2.95,10.17 7.16,25.7 9.36,34.5c2.2,8.8 5.6,23.42 7.54,32.5c1.94,9.08 5.1,25.73 7.02,37c1.92,11.27 4.4,27.7 5.52,36.5c1.12,8.8 2.69,22.52 3.49,30.5c0.8,7.98 2.05,22.6 2.76,32.5c0.76,10.5 1.3,35.08 1.29,59c-0.01,23.36 -0.57,48.75 -1.3,59c-0.71,9.9 -1.95,24.53 -2.75,32.5c-0.8,7.97 -2.37,21.7 -3.49,30.5c-1.12,8.8 -3.6,25.22 -5.52,36.5c-1.92,11.28 -5.08,27.92 -7.02,37c-1.94,9.08 -5.34,23.7 -7.54,32.5c-2.2,8.8 -6.42,24.33 -9.36,34.5c-2.95,10.17 -8.58,27.95 -12.53,39.5c-3.94,11.55 -10.45,29.33 -14.46,39.5c-4.01,10.17 -9.64,23.9 -12.51,30.5c-2.88,6.6 -9.05,20.1 -13.72,30c-4.67,9.9 -12.33,25.2 -17.02,34c-4.69,8.8 -12.74,23.31 -17.89,32.25c-5.15,8.94 -13.75,23.11 -19.1,31.5c-5.35,8.39 -14.19,21.78 -19.63,29.75c-5.45,7.97 -15.66,22.15 -22.68,31.5c-7.03,9.35 -17.57,22.85 -23.42,30c-5.85,7.15 -16.12,19.3 -22.8,27c-6.69,7.7 -25.22,27.07 -41.19,43.04c-15.97,15.97 -35.34,34.51 -43.04,41.19c-7.7,6.69 -19.85,16.95 -27,22.8c-7.15,5.85 -20.65,16.39 -30,23.4c-9.35,7.02 -23.08,16.94 -30.5,22.05c-7.42,5.11 -20.92,14.02 -30,19.81c-9.08,5.78 -23.7,14.66 -32.5,19.73c-8.8,5.07 -23.2,13.05 -32,17.74c-8.8,4.69 -24.1,12.34 -34,17.02c-9.9,4.67 -23.4,10.85 -30,13.72c-6.6,2.88 -20.33,8.51 -30.5,12.53c-10.17,4.02 -27.95,10.52 -39.5,14.45c-11.55,3.93 -29.33,9.56 -39.5,12.51c-10.17,2.95 -25.7,7.16 -34.5,9.37c-8.8,2.2 -23.42,5.6 -32.5,7.54c-9.08,1.94 -25.72,5.1 -37,7.02c-11.28,1.92 -27.7,4.4 -36.5,5.52c-8.8,1.12 -22.53,2.69 -30.5,3.49c-7.97,0.8 -22.6,2.05 -32.5,2.76c-10.47,0.76 -35.16,1.3 -59,1.3c-23.84,0 -48.53,-0.55 -59,-1.3c-9.9,-0.72 -24.52,-1.96 -32.5,-2.76c-7.98,-0.8 -21.7,-2.37 -30.5,-3.49c-8.8,-1.12 -25.23,-3.6 -36.5,-5.52c-11.27,-1.92 -27.92,-5.08 -37,-7.02c-9.08,-1.94 -23.7,-5.34 -32.5,-7.54c-8.8,-2.2 -24.33,-6.42 -34.5,-9.37c-10.17,-2.95 -27.95,-8.58 -39.5,-12.51c-11.55,-3.93 -29.33,-10.43 -39.5,-14.44c-10.17,-4.01 -26.37,-10.76 -36,-15c-9.62,-4.24 -26.5,-12.16 -37.5,-17.61c-11,-5.44 -26.98,-13.76 -35.5,-18.49c-8.52,-4.72 -22.02,-12.48 -30,-17.24c-7.98,-4.76 -25.07,-15.7 -38,-24.31c-12.93,-8.61 -31.21,-21.45 -40.63,-28.53c-9.42,-7.08 -24.02,-18.49 -32.45,-25.37c-8.42,-6.87 -21.64,-18.08 -29.37,-24.9c-7.73,-6.82 -25.8,-24.15 -40.15,-38.5c-14.35,-14.35 -31.68,-32.42 -38.5,-40.15c-6.82,-7.73 -18.03,-20.93 -24.9,-29.34c-6.87,-8.41 -18.3,-23.01 -25.38,-32.45c-7.08,-9.44 -19.92,-27.73 -28.52,-40.66c-8.6,-12.92 -19.28,-29.58 -23.72,-37c-4.44,-7.42 -11.6,-19.8 -15.91,-27.5c-4.31,-7.7 -13.11,-24.58 -19.55,-37.5c-6.44,-12.92 -14.97,-30.92 -18.94,-40c-3.97,-9.08 -10.5,-24.83 -14.51,-35c-4.01,-10.17 -10.51,-27.95 -14.44,-39.5c-3.93,-11.55 -9.56,-29.33 -12.51,-39.5c-2.95,-10.17 -7.16,-25.7 -9.37,-34.5c-2.2,-8.8 -5.6,-23.42 -7.54,-32.5c-1.94,-9.08 -5.1,-25.72 -7.02,-37c-1.92,-11.28 -4.4,-27.7 -5.52,-36.5c-1.12,-8.8 -2.69,-22.53 -3.49,-30.5c-0.8,-7.97 -2.05,-22.6 -2.76,-32.5c-0.76,-10.5 -1.3,-35.08 -1.29,-59c0.01,-23.36 0.57,-48.75 1.3,-59c0.71,-9.9 1.95,-24.52 2.75,-32.5c0.8,-7.98 2.37,-21.7 3.49,-30.5c1.12,-8.8 3.6,-25.23 5.52,-36.5c1.92,-11.27 5.08,-27.92 7.02,-37c1.94,-9.08 5.34,-23.7 7.54,-32.5c2.2,-8.8 6.42,-24.33 9.37,-34.5c2.95,-10.17 8.58,-27.95 12.51,-39.5c3.93,-11.55 10.43,-29.33 14.44,-39.5c4.01,-10.17 10.54,-25.92 14.51,-35c3.97,-9.08 12.5,-27.08 18.94,-40c6.44,-12.92 15.24,-29.8 19.55,-37.5c4.31,-7.7 11.47,-20.08 15.91,-27.5c4.44,-7.43 15.11,-24.07 23.72,-37c8.6,-12.93 21.44,-31.22 28.52,-40.66c7.08,-9.44 18.5,-24.04 25.38,-32.45c6.88,-8.41 18.08,-21.62 24.9,-29.34c6.82,-7.73 24.15,-25.8 38.5,-40.15c14.35,-14.35 32.42,-31.68 40.15,-38.5c7.73,-6.82 20.94,-18.03 29.37,-24.9c8.42,-6.87 23.02,-18.28 32.45,-25.35c9.42,-7.07 27.71,-19.91 40.63,-28.53c12.93,-8.62 29.58,-19.31 37,-23.74c7.42,-4.44 19.8,-11.59 27.5,-15.9c7.7,-4.31 24.13,-12.89 36.5,-19.06c12.38,-6.18 30.38,-14.71 40,-18.95c9.63,-4.25 25.83,-11 36,-15c10.17,-4 27.95,-10.5 39.5,-14.43c11.55,-3.93 29.33,-9.56 39.5,-12.51c10.17,-2.95 25.7,-7.16 34.5,-9.37c8.8,-2.2 23.42,-5.6 32.5,-7.54c9.08,-1.94 25.73,-5.1 37,-7.02c11.27,-1.92 27.7,-4.4 36.5,-5.52c8.8,-1.12 22.52,-2.69 30.5,-3.5c7.98,-0.8 22.6,-1.94 32.5,-2.53c9.9,-0.59 20.02,-1.24 22.5,-1.44c2.48,-0.21 22.27,-0.23 44,-0.04zM1202.25,307.77c-1.24,0.68 -2.77,2.24 -3.41,3.48c-0.64,1.24 -1.55,3.82 -2.03,5.75c-0.48,1.93 -1.3,9.13 -1.82,16c-0.53,6.88 -1.42,20.82 -1.99,31c-0.57,10.18 -1.7,31.1 -2.52,46.5c-0.82,15.4 -1.94,34.98 -2.48,43.5c-0.55,8.52 -1.43,23.15 -1.97,32.5c-0.54,9.35 -1.42,24.88 -1.96,34.5c-0.54,9.63 -1.44,26.05 -2,36.5c-0.56,10.45 -1.45,25.98 -1.98,34.5c-0.53,8.52 -1.45,24.27 -2.04,35c-0.59,10.73 -1.51,26.7 -2.04,35.5c-0.53,8.8 -1.42,24.33 -1.99,34.5c-0.56,10.17 -1.69,29.98 -2.5,44c-0.81,14.02 -1.93,33.83 -2.5,44c-0.56,10.17 -1.48,26.38 -2.03,36c-0.55,9.63 -1.45,24.92 -2,34c-0.55,9.08 -1.45,23.92 -2,33c-0.55,9.08 -1.47,25.27 -2.03,36c-0.56,10.73 -1.47,27.6 -2.01,37.5c-0.55,9.9 -1.44,25.2 -1.99,34c-0.55,8.8 -1.42,22.75 -1.92,31c-0.5,8.25 -1.38,23.33 -1.95,33.5c-0.57,10.17 -1.72,31.33 -2.56,47c-0.84,15.67 -1.98,35.47 -2.53,44c-0.55,8.53 -1.43,23.38 -1.96,33c-0.52,9.63 -1.22,22.22 -1.55,28c-0.33,5.78 -0.79,11.51 -1.03,12.75c-0.24,1.24 -1.11,2.25 -1.94,2.25c-0.83,0 -1.69,-1.01 -1.92,-2.25c-0.23,-1.24 -0.91,-8.55 -1.52,-16.25c-0.6,-7.7 -1.53,-19.17 -2.07,-25.5c-0.53,-6.33 -1.44,-17.8 -2.03,-25.5c-0.58,-7.7 -1.5,-19.62 -2.03,-26.5c-0.54,-6.87 -1.41,-17.67 -1.93,-24c-0.53,-6.33 -1.42,-16.9 -1.98,-23.5c-0.56,-6.6 -1.7,-21.22 -2.53,-32.5c-0.83,-11.28 -1.98,-26.12 -2.54,-33c-0.57,-6.87 -1.45,-17.45 -1.97,-23.5c-0.52,-6.05 -1.38,-16.4 -1.92,-23c-0.54,-6.6 -1.66,-21.23 -2.5,-32.5c-0.83,-11.27 -1.97,-25.67 -2.52,-32c-0.56,-6.33 -1.41,-15.1 -1.89,-19.5c-0.48,-4.4 -1.54,-9.58 -2.34,-11.5c-0.8,-1.92 -2.57,-4.4 -3.92,-5.5c-1.54,-1.25 -6.59,-2.82 -13.43,-4.19c-8.34,-1.66 -11.92,-1.96 -14.96,-1.26c-2.2,0.51 -5.05,1.94 -6.32,3.19c-1.28,1.24 -4.04,5.41 -6.13,9.26c-2.1,3.85 -9.55,18.25 -16.56,32c-7.02,13.75 -17.68,34.67 -23.71,46.5c-6.03,11.83 -12.15,22.75 -13.61,24.27c-1.46,1.52 -3.56,2.77 -4.66,2.76c-1.1,-0.01 -3.11,-0.8 -4.46,-1.77c-1.35,-0.97 -4.82,-5.36 -7.71,-9.76c-2.89,-4.4 -7.67,-11.37 -10.63,-15.5c-2.96,-4.12 -6.92,-8.34 -8.79,-9.37c-2.63,-1.45 -4.65,-1.75 -8.9,-1.32c-3.02,0.3 -8.42,1.39 -12,2.41c-3.58,1.02 -7.85,2.79 -9.5,3.94c-2.04,1.42 -7.63,10.2 -17.49,27.47c-7.97,13.96 -15.09,26.5 -15.82,27.88c-0.73,1.38 -2.75,4.98 -4.5,8c-1.74,3.02 -3.96,6.85 -4.92,8.5c-0.96,1.65 -2.87,5.03 -4.24,7.5c-1.37,2.47 -3.06,5.21 -3.76,6.09c-0.7,0.87 -2.17,2.07 -3.27,2.66c-1.45,0.78 -2.43,0.75 -3.55,-0.09c-0.85,-0.64 -2.04,-2.51 -2.64,-4.16c-0.6,-1.65 -1.62,-7.5 -2.27,-13c-0.64,-5.5 -1.82,-15.17 -2.61,-21.5c-0.79,-6.33 -1.91,-15.33 -2.49,-20c-0.58,-4.67 -1.46,-11.65 -1.96,-15.5c-0.5,-3.85 -1.16,-9.02 -1.46,-11.5c-0.3,-2.48 -1.23,-9.9 -2.07,-16.5c-0.84,-6.6 -1.99,-15.83 -2.55,-20.5c-0.56,-4.67 -1.47,-12.1 -2.02,-16.5c-0.55,-4.4 -1.41,-11.15 -1.91,-15c-0.5,-3.85 -1.36,-10.37 -1.92,-14.5c-0.56,-4.12 -1.71,-13.58 -2.56,-21c-0.85,-7.42 -1.96,-16.65 -2.46,-20.5c-0.5,-3.85 -1.42,-10.83 -2.05,-15.5c-0.62,-4.67 -1.53,-11.65 -2,-15.5c-0.48,-3.85 -1.32,-10.83 -1.88,-15.5c-0.55,-4.67 -1.74,-14.35 -2.63,-21.5c-0.89,-7.15 -2.04,-16.15 -2.55,-20c-0.51,-3.85 -1.4,-10.83 -1.99,-15.5c-0.58,-4.67 -1.47,-11.87 -1.96,-16c-0.5,-4.12 -1.61,-13.12 -2.47,-20c-0.86,-6.87 -2,-15.99 -2.54,-20.25c-0.53,-4.26 -1.42,-11.35 -1.97,-15.75c-0.55,-4.4 -1.44,-11.49 -1.97,-15.75c-0.53,-4.26 -1.67,-13.37 -2.53,-20.25c-0.86,-6.87 -2.01,-16.1 -2.57,-20.5c-0.56,-4.4 -1.46,-11.6 -2,-16c-0.54,-4.4 -1.4,-11.15 -1.89,-15c-0.5,-3.85 -1.6,-12.85 -2.46,-20c-0.86,-7.15 -2.04,-16.83 -2.64,-21.5c-0.6,-4.67 -1.48,-11.65 -1.97,-15.5c-0.49,-3.85 -1.34,-10.37 -1.9,-14.5c-0.55,-4.12 -1.48,-11.32 -2.07,-16c-0.58,-4.68 -1.76,-14.35 -2.61,-21.5c-0.85,-7.15 -1.96,-16.15 -2.47,-20c-0.51,-3.85 -1.36,-10.6 -1.91,-15c-0.54,-4.4 -1.45,-10.93 -2,-14.5c-0.56,-3.57 -1.33,-8.07 -1.71,-10c-0.39,-1.98 -2.13,-4.91 -4,-6.75c-2.43,-2.39 -4.56,-3.42 -8.05,-3.89c-2.61,-0.35 -8.8,-0.42 -13.75,-0.16c-4.95,0.26 -10.01,1 -11.25,1.64c-1.24,0.64 -3.36,2.62 -4.72,4.41c-1.74,2.29 -2.78,5.46 -3.51,10.75c-0.57,4.13 -1.49,15.15 -2.03,24.5c-0.54,9.35 -1.43,24.2 -1.96,33c-0.53,8.8 -1.42,23.65 -1.96,33c-0.55,9.35 -1.45,24.42 -2.01,33.5c-0.56,9.08 -1.48,24.04 -2.04,33.25c-0.56,9.21 -1.48,24.51 -2.04,34c-0.56,9.49 -1.48,24.9 -2.03,34.25c-0.56,9.35 -1.46,23.52 -2,31.5c-0.54,7.98 -1.44,22.83 -2,33c-0.56,10.17 -1.46,26.15 -2.01,35.5c-0.55,9.35 -1.44,23.98 -1.97,32.5c-0.54,8.52 -1.4,22.02 -1.92,30c-0.52,7.98 -1.42,22.15 -2,31.5c-0.58,9.35 -1.74,29.38 -2.58,44.5c-0.84,15.13 -1.95,34.25 -2.48,42.5c-0.53,8.25 -1.19,18.38 -1.47,22.5c-0.28,4.13 -0.95,14.92 -1.49,24c-0.54,9.08 -1.44,24.15 -2.01,33.5c-0.57,9.35 -1.69,28.25 -2.5,42c-0.81,13.75 -1.93,32.2 -2.48,41c-0.55,8.8 -1.45,23.65 -2,33c-0.55,9.35 -1.48,25.1 -2.06,35c-0.58,9.9 -1.5,24.53 -2.04,32.5c-0.54,7.97 -1.42,22.38 -1.95,32c-0.54,9.63 -1.4,25.38 -1.92,35c-0.52,9.63 -1.31,19.42 -1.75,21.77c-0.44,2.35 -1.37,4.26 -2.05,4.25c-0.69,-0.01 -1.51,-1.26 -1.82,-2.77c-0.31,-1.51 -0.99,-9.05 -1.51,-16.75c-0.52,-7.7 -1.36,-19.62 -1.88,-26.5c-0.52,-6.87 -1.41,-19.25 -1.97,-27.5c-0.57,-8.25 -1.72,-25.12 -2.56,-37.5c-0.84,-12.37 -1.98,-28.58 -2.55,-36c-0.56,-7.42 -1.46,-19.8 -2,-27.5c-0.54,-7.7 -1.41,-20.53 -1.95,-28.5c-0.54,-7.97 -1.42,-21.25 -1.96,-29.5c-0.54,-8.25 -1.47,-21.52 -2.05,-29.5c-0.58,-7.98 -1.54,-19.67 -2.13,-26c-0.59,-6.33 -1.59,-13.25 -2.23,-15.39c-0.64,-2.14 -2.51,-5.07 -4.16,-6.52c-1.81,-1.58 -5.38,-3.15 -9,-3.95c-3.3,-0.73 -6.9,-1.78 -8,-2.35c-1.1,-0.57 -4.25,-1.07 -7,-1.11c-3.84,-0.06 -5.81,0.51 -8.5,2.44c-1.92,1.39 -6.56,7.21 -10.29,12.95c-3.74,5.74 -11.25,17.63 -16.69,26.43c-5.44,8.8 -14.09,22.64 -19.21,30.77c-7.18,11.39 -10.05,15.11 -12.56,16.25c-2.43,1.11 -4.07,1.24 -6.5,0.51c-1.79,-0.54 -5.27,-2.67 -7.74,-4.75c-2.47,-2.08 -17.09,-14.8 -32.5,-28.28c-15.41,-13.48 -30.49,-26.58 -33.51,-29.12c-3.02,-2.54 -7.16,-5.24 -9.19,-6c-2.99,-1.12 -4.17,-1.14 -6.25,-0.13l-2.56,1.25l-0.02,49.5c4.28,4.94 22.62,21.32 43.52,39.59c20.9,18.27 40.02,34.69 42.5,36.48c2.48,1.8 5.85,3.49 7.5,3.75c1.65,0.27 7.37,-0.26 12.71,-1.17c8.31,-1.42 10.14,-2.09 12.68,-4.65c1.64,-1.65 7.25,-9.75 12.47,-18c5.22,-8.25 10.87,-16.91 12.57,-19.25c2.2,-3.05 3.78,-4.25 5.57,-4.25c1.51,0 3.07,0.9 3.92,2.25c0.92,1.46 1.82,7.9 2.55,18.25c0.62,8.8 1.55,22.41 2.08,30.25c0.53,7.84 1.4,20.66 1.94,28.5c0.54,7.84 1.46,20.55 2.04,28.25c0.58,7.7 1.46,19.4 1.96,26c0.49,6.6 1.62,23.03 2.49,36.5c0.88,13.47 2.05,30.8 2.6,38.5c0.55,7.7 1.43,19.63 1.95,26.5c0.52,6.88 1.38,18.58 1.91,26c0.53,7.42 1.44,20.7 2.01,29.5c0.58,8.8 1.76,25.67 2.63,37.5c0.87,11.83 1.98,27.35 2.46,34.5c0.48,7.15 1.35,19.64 1.93,27.75c0.57,8.11 1.48,21.16 2.01,29c0.53,7.84 1.68,24.38 2.57,36.75c0.88,12.38 2,28.35 2.47,35.5c0.48,7.15 1.35,22 1.93,33c0.58,11 1.51,23.04 2.06,26.75c0.55,3.71 0.99,8.44 0.98,10.5c-0.01,2.06 0.5,5.33 1.13,7.25c0.63,1.92 2.55,4.95 4.27,6.73c1.85,1.92 4.94,3.71 7.62,4.41c2.77,0.73 8.34,0.99 14.5,0.68c7.86,-0.4 11.05,-1.02 14.88,-2.91c2.72,-1.34 5.66,-3.74 6.65,-5.41c0.97,-1.65 2.27,-5.47 2.88,-8.5c0.61,-3.03 1.55,-10.45 2.09,-16.5c0.54,-6.05 1.42,-25.17 1.95,-42.5c0.53,-17.33 1.24,-33.75 1.58,-36.5c0.33,-2.75 1.04,-12.2 1.57,-21c0.53,-8.8 1.38,-22.75 1.89,-31c0.5,-8.25 1.62,-27.6 2.48,-43c0.86,-15.4 2.01,-34.75 2.55,-43c0.54,-8.25 1.44,-22.2 2,-31c0.56,-8.8 1.44,-23.42 1.97,-32.5c0.53,-9.08 1.42,-24.15 1.98,-33.5c0.56,-9.35 1.72,-28.25 2.56,-42c0.85,-13.75 1.97,-32.31 2.5,-41.25c0.53,-8.94 1.4,-23.56 1.93,-32.5c0.53,-8.94 1.41,-23.9 1.94,-33.25c0.54,-9.35 1.45,-24.42 2.03,-33.5c0.58,-9.08 1.51,-24.37 2.08,-34c0.57,-9.62 1.47,-24.81 2.01,-33.75c0.54,-8.94 1.43,-23.79 1.99,-33c0.56,-9.21 1.47,-23.05 2.02,-30.75c0.55,-7.7 1.46,-22.77 2.01,-33.5c0.56,-10.73 1.46,-27.15 2.01,-36.5c0.55,-9.35 1.44,-23.98 1.98,-32.5c0.54,-8.52 1.4,-22.02 1.91,-30c0.51,-7.98 1.39,-22.15 1.96,-31.5c0.56,-9.35 1.72,-29.15 2.56,-44c0.84,-14.85 2,-33.98 2.57,-42.5c0.57,-8.52 1.37,-21.12 1.77,-28c0.4,-6.87 1.06,-13.06 1.46,-13.75c0.4,-0.69 1.17,-1.25 1.72,-1.25c0.55,0 1.45,1.13 2,2.5c0.55,1.38 1.45,6.44 2,11.25c0.55,4.81 1.41,11.9 1.92,15.75c0.5,3.85 1.65,12.85 2.54,20c0.89,7.15 2.08,16.83 2.64,21.5c0.56,4.67 1.42,11.65 1.92,15.5c0.5,3.85 1.33,10.15 1.85,14c0.52,3.85 1.66,13.08 2.52,20.5c0.87,7.42 2.06,17.33 2.66,22c0.6,4.67 1.48,11.65 1.97,15.5c0.49,3.85 1.34,10.38 1.9,14.5c0.55,4.13 1.48,11.33 2.07,16c0.58,4.67 1.76,14.35 2.61,21.5c0.85,7.15 1.96,16.15 2.47,20c0.51,3.85 1.4,10.83 1.98,15.5c0.58,4.67 1.45,11.65 1.92,15.5c0.47,3.85 1.59,12.85 2.49,20c0.9,7.15 2.06,16.38 2.58,20.5c0.52,4.13 1.43,11.33 2.01,16c0.58,4.67 1.45,11.65 1.93,15.5c0.48,3.85 1.58,12.63 2.44,19.5c0.86,6.88 2.04,16.33 2.61,21c0.57,4.67 1.47,12.1 2,16.5c0.53,4.4 1.43,11.38 2,15.5c0.57,4.13 1.44,10.65 1.93,14.5c0.49,3.85 1.37,11.05 1.96,16c0.58,4.95 1.59,11.03 2.25,13.5c0.65,2.47 1.89,5.55 2.76,6.83c0.87,1.28 3.38,3.19 5.58,4.24c3.03,1.45 6.24,1.91 13.25,1.92c7.09,0.01 10.24,-0.44 13.5,-1.94c2.34,-1.08 4.95,-2.76 5.8,-3.75c0.85,-0.99 3.17,-4.49 5.14,-7.79c1.97,-3.3 4.49,-7.58 5.58,-9.5c1.1,-1.92 10.65,-18.8 21.23,-37.5c10.58,-18.7 20.08,-35.46 21.12,-37.25c1.03,-1.79 2.83,-4.94 3.99,-7c1.16,-2.06 3.82,-6.67 5.9,-10.25c2.08,-3.58 4.62,-7.22 5.64,-8.1c1.02,-0.88 2.53,-1.84 3.35,-2.14c0.83,-0.3 2.85,0 4.5,0.66c2.22,0.9 5.49,4.96 12.58,15.64c5.27,7.94 10.1,15.45 10.75,16.68c0.65,1.24 3.09,3.13 5.42,4.21c3.7,1.71 5.61,1.89 14.75,1.36c5.77,-0.33 11.74,-1.22 13.25,-1.96c1.51,-0.75 3.81,-2.82 5.11,-4.61c1.3,-1.79 4.4,-7.08 6.89,-11.75c2.49,-4.67 9.78,-18.85 16.22,-31.5c6.43,-12.65 12.67,-24.02 13.86,-25.28c1.19,-1.25 2.73,-2.26 3.42,-2.25c0.69,0.01 1.88,1.04 2.64,2.28c0.77,1.24 1.67,4.27 2.01,6.75c0.34,2.48 1.09,11.02 1.68,19c0.58,7.98 1.46,19.22 1.95,25c0.49,5.78 1.35,15.9 1.91,22.5c0.56,6.6 1.46,17.63 2,24.5c0.54,6.88 1.69,21.72 2.57,33c0.88,11.28 2,25.22 2.49,31c0.49,5.78 1.38,16.8 1.98,24.5c0.6,7.7 1.51,19.4 2.02,26c0.5,6.6 1.38,18.53 1.95,26.5c0.57,7.97 1.27,16.3 1.57,18.5c0.3,2.2 0.99,10.08 1.53,17.5c0.54,7.42 1.43,19.01 1.97,25.75c0.54,6.74 1.4,17.76 1.92,24.5c0.52,6.74 1.63,20.58 2.48,30.75c0.85,10.17 2.02,24.8 2.61,32.5c0.58,7.7 1.5,19.63 2.04,26.5c0.54,6.88 1.41,17.67 1.93,24c0.53,6.33 1.42,16.9 1.98,23.5c0.56,6.6 1.7,21.22 2.53,32.5c0.83,11.28 1.98,26.13 2.54,33c0.57,6.88 1.45,17.45 1.97,23.5c0.52,6.05 1.38,16.4 1.92,23c0.54,6.6 1.46,18.3 2.04,26c0.58,7.7 1.53,16.7 2.11,20c0.58,3.3 1.81,6.94 2.73,8.09c0.92,1.15 3.25,3.06 5.18,4.25c2.79,1.71 5.03,2.15 11,2.12c4.13,-0.02 10.2,-0.67 13.5,-1.45c4.84,-1.14 6.63,-2.15 9.22,-5.21c2.67,-3.15 3.39,-5.09 4.21,-11.3c0.54,-4.12 1.25,-12.9 1.58,-19.5c0.33,-6.6 1,-19.42 1.49,-28.5c0.49,-9.08 1.35,-25.05 1.91,-35.5c0.56,-10.45 1.47,-25.97 2.01,-34.5c0.55,-8.53 1.47,-24.05 2.05,-34.5c0.58,-10.45 1.49,-26.65 2.03,-36c0.54,-9.35 1.44,-25.1 2,-35c0.57,-9.9 1.7,-29.7 2.51,-44c0.82,-14.3 1.92,-33.65 2.46,-43c0.54,-9.35 1.45,-25.55 2.02,-36c0.57,-10.45 1.49,-25.75 2.03,-34c0.54,-8.25 1.44,-22.87 2,-32.5c0.56,-9.62 1.48,-26.5 2.04,-37.5c0.57,-11 1.46,-27.65 1.99,-37c0.53,-9.35 1.4,-24.2 1.94,-33c0.54,-8.8 1.41,-22.97 1.93,-31.5c0.52,-8.53 1.45,-24.27 2.06,-35c0.61,-10.73 1.79,-31.65 2.62,-46.5c0.84,-14.85 1.93,-33.98 2.42,-42.5c0.5,-8.52 1.36,-23.6 1.92,-33.5c0.56,-9.9 1.47,-26.1 2.02,-36c0.55,-9.9 1.7,-29.92 2.55,-44.5c0.86,-14.58 1.98,-33.92 2.49,-43c0.51,-9.08 1.39,-24.6 1.95,-34.5c0.56,-9.9 1.44,-25.65 1.96,-35c0.52,-9.35 1.43,-25.77 2.04,-36.5c0.6,-10.73 1.54,-25.35 2.08,-32.5c0.54,-7.15 0.98,-16.04 0.98,-19.75c0,-3.71 0.45,-7.87 1,-9.25c0.55,-1.37 1.45,-2.5 2,-2.5c0.55,0 1.41,0.79 1.91,1.75c0.5,0.96 1.45,6.02 2.1,11.25c0.65,5.23 1.57,12.2 2.02,15.5c0.46,3.3 1.31,9.6 1.9,14c0.58,4.4 1.78,13.85 2.65,21c0.87,7.15 2,16.04 2.5,19.75c0.51,3.71 1.37,10.01 1.92,14c0.55,3.99 1.45,10.85 2,15.25c0.55,4.4 1.42,11.38 1.94,15.5c0.52,4.13 1.67,12.9 2.55,19.5c0.89,6.6 2.04,15.38 2.56,19.5c0.52,4.13 1.4,11.1 1.95,15.5c0.55,4.4 1.42,11.15 1.93,15c0.51,3.85 1.66,12.4 2.55,19c0.89,6.6 2.04,15.6 2.56,20c0.52,4.4 1.4,11.38 1.95,15.5c0.55,4.13 1.45,10.65 2.01,14.5c0.56,3.85 1.67,12.4 2.47,19c0.8,6.6 1.96,15.83 2.57,20.5c0.61,4.67 1.51,11.65 2,15.5c0.49,3.85 1.39,10.6 1.99,15c0.6,4.4 1.49,10.92 1.97,14.5c0.48,3.58 1.34,10.55 1.91,15.5c0.57,4.95 1.48,12.15 2.02,16c0.54,3.85 1.44,10.38 2,14.5c0.56,4.13 1.52,11.33 2.14,16c0.62,4.67 1.8,12.77 2.63,18c0.82,5.22 2.13,10.74 2.9,12.25c0.77,1.51 2.64,3.62 4.15,4.69c1.51,1.07 5.9,2.45 9.75,3.07c3.85,0.63 9.25,1.39 12,1.69c3.73,0.41 5.99,0.08 8.87,-1.32c2.67,-1.3 4.89,-3.58 7.17,-7.38c1.81,-3.03 15.02,-28.9 29.36,-57.5c14.9,-29.74 27.14,-52.96 28.58,-54.25c1.39,-1.24 3.42,-2.25 4.52,-2.25c1.1,0 3.19,0.79 4.65,1.75c1.46,0.96 6.05,6.02 10.2,11.25c4.15,5.23 11.85,14.86 17.1,21.41c5.25,6.55 10.9,12.97 12.55,14.26l3,2.35c102.85,-0.02 117.08,-0.31 118.97,-1.27c1.88,-0.95 2.36,-1.84 2.01,-3.75c-0.25,-1.37 -1.39,-10.83 -2.52,-21c-1.42,-12.67 -2.54,-18.97 -3.55,-20c-1.25,-1.27 -8.28,-1.58 -46.69,-2c-31.83,-0.35 -45.96,-0.85 -47.72,-1.68c-1.37,-0.65 -3.7,-2.23 -5.16,-3.5c-1.46,-1.27 -7.74,-8.84 -13.96,-16.82c-6.22,-7.98 -16.95,-21.54 -23.84,-30.15c-6.9,-8.61 -13.88,-16.71 -15.51,-18c-2.74,-2.16 -3.77,-2.33 -13,-2.09c-5.51,0.14 -11.71,0.71 -13.78,1.25c-2.39,0.63 -4.93,2.4 -7,4.87c-1.79,2.14 -10.9,19.12 -20.25,37.73c-9.35,18.62 -18.01,35.09 -19.25,36.62c-1.24,1.52 -2.92,2.77 -3.75,2.77c-0.83,0 -2.3,-1.01 -3.29,-2.25c-1.03,-1.3 -2.1,-4.99 -2.52,-8.75c-0.41,-3.58 -1.19,-9.87 -1.75,-14c-0.56,-4.12 -1.43,-10.42 -1.94,-14c-0.51,-3.58 -1.38,-9.87 -1.94,-14c-0.55,-4.12 -1.47,-11.1 -2.04,-15.5c-0.57,-4.4 -1.96,-15.2 -3.11,-24c-1.14,-8.8 -2.48,-19.15 -2.98,-23c-0.5,-3.85 -1.33,-10.37 -1.86,-14.5c-0.52,-4.12 -1.41,-11.1 -1.96,-15.5c-0.56,-4.4 -1.74,-13.4 -2.62,-20c-0.89,-6.6 -2.04,-15.37 -2.56,-19.5c-0.52,-4.12 -1.4,-11.1 -1.95,-15.5c-0.55,-4.4 -1.42,-11.15 -1.95,-15c-0.52,-3.85 -1.66,-12.62 -2.54,-19.5c-0.87,-6.87 -2.05,-16.1 -2.62,-20.5c-0.57,-4.4 -1.42,-10.92 -1.9,-14.5c-0.48,-3.58 -1.36,-10.1 -1.96,-14.5c-0.6,-4.4 -1.73,-13.17 -2.52,-19.5c-0.79,-6.33 -1.88,-15.1 -2.43,-19.5c-0.55,-4.4 -1.5,-11.6 -2.12,-16c-0.61,-4.4 -1.5,-10.92 -1.98,-14.5c-0.47,-3.58 -1.33,-10.1 -1.9,-14.5c-0.57,-4.4 -1.71,-13.4 -2.52,-20c-0.82,-6.6 -1.99,-15.6 -2.6,-20c-0.61,-4.4 -1.53,-11.15 -2.04,-15c-0.51,-3.85 -1.37,-10.6 -1.92,-15c-0.55,-4.4 -1.42,-11.37 -1.94,-15.5c-0.52,-4.12 -1.67,-12.9 -2.55,-19.5c-0.89,-6.6 -2.07,-15.6 -2.63,-20c-0.56,-4.4 -1.44,-11.15 -1.95,-15c-0.51,-3.85 -1.36,-10.6 -1.87,-15c-0.51,-4.4 -1.41,-11.37 -2,-15.5c-0.59,-4.12 -1.54,-11.32 -2.12,-16c-0.58,-4.68 -1.5,-11.87 -2.04,-16c-0.54,-4.12 -1.4,-10.43 -1.9,-14c-0.5,-3.57 -1.37,-9.65 -1.92,-13.5c-0.55,-3.85 -1.27,-9.48 -1.6,-12.5c-0.33,-3.02 -1.1,-7.75 -1.72,-10.5c-0.62,-2.75 -2.29,-6.29 -3.7,-7.87c-1.41,-1.58 -4.03,-3.49 -5.82,-4.25c-2.06,-0.87 -6.63,-1.33 -12.5,-1.26c-5.09,0.07 -10.6,0.64 -12.25,1.27c-1.65,0.63 -4.01,1.7 -5.25,2.38z" />
</svg>