<svg xmlns="http://www.w3.org/2000/svg" viewBox="0 0 1750 1750" width="1750" height="1750">
	<style>
		tspan { white-space:pre }
		.shp0 { fill: #ffffff } 
	</style>
	<path id="Path 0" fill-rule="evenodd" class="shp0" d="M912 50.14L953 53.83L989 57.28L1026 63.83L1045 67C1069.04 71.87 1092.59 78.4 1116 85.57L1136 91.51L1156 98.92L1166 102.06L1179 107.55L1197 114.35L1206 118.96L1216 122.87L1233 131.18L1241 134.66L1277 154.09L1285 157.78L1295 164.19L1316.99 177.21L1327.01 184.31L1337.83 190.94L1344.04 195.88L1350 199.4C1367.3 210.91 1394.97 232.78 1411 246.44L1418.28 253.41L1436.72 269.46L1449.44 282.59L1458.85 291.15L1467.41 300.56L1480.54 313.28L1496.59 331.72L1503.56 339C1517.22 355.03 1539.09 382.7 1550.6 400L1554.12 405.96L1559.06 412.17L1565.69 422.99L1572.79 433.01L1585.81 455L1592.22 465L1595.91 473L1615.34 509L1618.82 517L1627.13 534L1631.04 544L1635.65 553L1638.86 562L1647.94 584L1651.08 594L1658.49 614L1664.43 634C1671.6 657.41 1678.13 680.96 1683 705L1686.17 724L1692.72 761L1696.17 797L1697.3 804L1697.3 810L1698.7 817L1700 836L1700 912L1696.17 953L1692.72 989L1686.17 1026L1683.2 1044L1667.57 1107C1660.11 1131.35 1651.91 1155.37 1642.45 1179L1635.65 1197L1631.04 1206L1627.13 1216L1618.82 1233L1615.34 1241L1595.91 1277L1592.22 1285L1585.81 1295L1572.79 1316.99L1565.69 1327.01L1559.06 1337.83L1554.12 1344.04L1550.6 1350C1539.09 1367.3 1517.22 1394.97 1503.56 1411L1496.59 1418.28L1480.54 1436.72L1467.41 1449.44L1458.85 1458.85L1449.44 1467.41L1437.58 1479.7L1418.28 1496.59L1411 1503.56C1394.97 1517.22 1367.3 1539.09 1350 1550.6L1344.04 1554.12L1337.83 1559.06L1328 1565.05L1316.99 1572.79L1310 1576.6L1285 1592.22L1277 1595.91L1241 1615.34L1233 1618.82L1216 1627.13L1206 1631.04L1197 1635.65L1188 1638.86L1166 1647.94L1155 1651.43L1136 1658.49L1116 1664.43L1107 1667.57L1046 1682.79L1026 1686.17L1017 1688.24C996.12 1691.97 975.13 1694.58 954 1696.09L912 1700L836 1700L827 1699L818 1699L811 1697.36L804 1697.36L797 1696.17L761 1692.72L724 1686.17L705 1683C680.96 1678.13 657.41 1671.6 634 1664.43L614 1658.49L594 1651.08L584 1647.94L571 1642.45L553 1635.65L544 1631.04L534 1627.13L517 1618.82L509 1615.34L473 1595.91L465 1592.22L455 1585.81L433.01 1572.79L422.99 1565.69L412.17 1559.06L405.96 1554.12L400 1550.6C382.7 1539.09 355.03 1517.22 339 1503.56L331.72 1496.59L312.42 1479.7L300.56 1467.41L291.15 1458.85L282.59 1449.44L270.3 1437.58L253.41 1418.28L246.44 1411C232.78 1394.97 210.91 1367.3 199.4 1350L195.88 1344.04L190.94 1337.83L184.31 1327.01L177.21 1316.99L164.19 1295L157.78 1285L154.09 1277L134.66 1241L131.18 1233L122.87 1216L118.96 1206L114.35 1197L111.14 1188L102.06 1166L98.92 1156L91.51 1136L85.57 1116C78.4 1092.59 71.87 1069.04 67 1045L63.83 1026L57.28 989L53.83 953L52.7 946L52.7 940L51.04 932L51.04 924L50 912L50 838L51.04 826L51.04 818L52.7 810L52.7 804L53.83 797L57.28 761L63.83 724L67 705C71.87 680.96 78.4 657.41 85.57 634L91.51 614L98.92 594L102.06 584L111.14 562L114.35 553L118.96 544L122.87 534L131.18 517L134.66 509L154.09 473L157.78 465L164.8 454L177.21 433.01L184.31 422.99L190.94 412.17L195.88 405.96L223.67 367L247.29 338.01L253.41 331.72L269.46 313.28L282.59 300.56L291.15 291.15L300.56 282.59L312.42 270.3L331.72 253.41L339 246.44C355.03 232.78 382.7 210.91 400 199.4L405.96 195.88L412.17 190.94L422 184.95L433.01 177.21L440 173.4L465 157.78L473 154.09L509 134.66L517 131.18L534 122.87L544 118.96L553 114.35L562 111.14L584 102.06L595 98.57L614 91.51L634 85.57L643 82.43L704 67.21L724 63.83L754 58.27L797 53.83L804 52.7L810 52.7L818 51.17L830 50.14L912 50.14ZM1344.61 884L1336.96 855L1334.63 848L1331.14 831L1328.21 823L1325.54 810L1320.51 790L1315.06 762C1313.64 757.29 1311.62 756.24 1310.01 752L1305.63 739C1300.41 728.56 1291.94 719.39 1280 717.39C1276.66 716.83 1273.35 717.82 1270 717.96C1265.89 718.14 1263.04 717.57 1259 719.03C1255.81 720.19 1247.72 724.21 1245.51 726.55C1243.63 728.53 1242.85 731.56 1241.47 734C1239.6 737.29 1237.33 739.43 1235.85 743L1231.78 757L1225.61 772L1219.25 790L1215.01 800L1209.92 816L1199.23 846L1194.77 862L1187.22 878L1181.49 901L1175.6 918L1172.77 928L1164.09 950L1159.17 966L1155.7 973L1152.73 984L1148.19 998L1144.21 1016L1136.34 1039L1132.49 1051L1130.45 1059L1127.17 1066C1124.83 1071.12 1122.79 1086.87 1114 1084.34C1108.5 1082.76 1107.8 1076.69 1106.91 1072L1101.5 1040L1099.28 1031L1096.96 1014L1095.24 1007L1093 990L1093 980L1090.28 965L1088.71 950L1085.3 930L1083.7 915C1082.66 908.73 1080.5 906.51 1080.04 896C1079.66 887.42 1080.04 885.77 1077.57 877L1075.32 869L1073.86 855.01L1070.44 838L1068.72 823L1066.29 811L1065.66 804L1063.09 795L1061.42 782L1061.42 775L1056.3 749L1055.68 740L1052.3 725L1050.53 707L1047.68 697L1045.68 682L1042.08 667L1042.08 657L1039.17 641L1037.66 622L1035.84 615L1031.32 593L1029.83 574L1025.3 544L1024.71 535L1021.45 520L1020.56 512L1018.44 501L1017.7 489L1011.29 451L1009.82 434L1008.01 426C1006.29 418.01 1006.09 415.03 1006 407C1005.89 397.72 1003 388.08 1001.31 379L998.29 362L997.61 354C996.59 349.48 994.19 348.1 992.82 342L989.62 321L987.52 314L986.25 307C984.87 301.36 979.08 285.13 976.6 280C975 276.7 972.77 274.02 970.75 271C961.65 257.4 959.74 254.68 944 249.17L937 246.42C933.82 245.71 923.07 247.1 920 248.35C913.21 251.12 905.56 258.3 901.04 264.04C897.47 268.58 889.77 281.54 888.05 287L885.91 296L879.44 315L873.25 338L866.39 358L865.4 367C863.4 375.39 860.45 379.7 860.74 389C861.09 400.04 857.7 398.34 855.51 408L851.32 431L850.54 439L846.51 455L845.49 462L837.49 497L833.73 511C833 514.2 833.83 515.21 833.73 518L832.54 530L829.44 543L827.66 556L824.38 566L823.83 573L821.83 584L818.52 594L817.39 603L813.31 620L811.8 632L810.21 639L809.38 647L806.45 657L804.43 668L800.19 697C798.63 704.81 796.82 705.57 794.91 712L787.51 743L786.7 751L783.29 773L782.7 782L778.07 795L776.58 807L774.5 820L772.32 828L771.48 836L769.52 843L768.37 850L766.38 856L765.48 862L763.31 870L759.32 893L758.63 900L755.46 914L752.69 933L750.08 944L747.54 962L744.5 974L735.11 1015L732.38 1031L730.19 1040L728.83 1054L725.54 1075L719.08 1105L715.24 1116L704.85 1162L700.48 1178L697.29 1187L694.98 1198C693.34 1201.23 688.98 1205.48 685 1204.34C675.56 1201.64 676.48 1185.8 674.03 1179L669.85 1170L667.46 1156C666.22 1151.39 664.61 1149.45 663.46 1143L661.64 1128L655.49 1107L652.57 1094L646.62 1070L645.47 1062C644.4 1057.56 642.45 1055.98 641.23 1050L638.4 1032L633.74 1016L628.62 995L623.3 977L618.21 957L616.41 947L605.42 908L601.25 891L594.33 874L589.09 855L586.49 847L584.38 837L581.3 829L579.42 820L571.22 786L569.65 777L562.49 755L560.69 742L556.48 727L546.22 693L541.26 675C537.26 662.01 532.19 649.38 526.64 637L521.77 623C519.57 618.81 510.87 607.37 506.96 605.14C504.67 603.83 501.56 603.38 499.04 602.53C497.13 601.89 494.7 600.49 492.83 600.34L478 603.59C468.83 607.11 468.81 617.5 465.28 625L458.17 649L455.31 656L452.17 667L448.92 675L442.96 700L439.63 709L438 718L433.38 736L430.92 743L426.11 761L420.51 776L414.96 799L408.51 825L407.1 835L403.54 845L401.5 856L395.42 881C393.76 888.43 391.4 897.38 385.9 902.9C383.57 905.24 380.08 907.57 377 908.79C374.14 909.92 356.69 912.44 353 912.81C349.31 912.81 347.71 911.64 344 912.81L347 914C337.17 913.29 328.79 915.79 319 916.84L264 923.16L250 925L227 927.72C223.75 928.66 221.07 930.51 220.33 934C219.31 938.86 222.64 941.93 227 943.02L257 946.42L313 952.28L336 955.38L372 958.09L382 959C387.85 959.06 399.78 959.24 405 957.27C407.2 956.44 408.98 954.97 411 953.79C419.77 948.68 422.2 944.76 427.28 936L431.82 928L441.54 895L444.23 879L451.26 853L453.57 843L456.71 834L462.59 808L468.54 786L471.59 777L475.43 759L482.79 733C483.78 728.63 486.72 717.62 492.96 718.96C496.48 719.72 498.18 724.03 499.32 727C503.14 736.97 504.16 739.25 505.09 750L510.58 770L512.52 782L515.7 794C516.73 801.13 514.98 799.74 517.88 812L526.95 844L533.91 883L537.28 906L540.63 924C540.9 930.61 542.62 937.59 544.43 944L546.68 951L548.61 966L552.82 983L553.47 995L558.39 1013L560.29 1028C561.77 1034.65 563.88 1034.09 565.6 1042C567.73 1051.85 566.5 1051.94 567.32 1057L572.97 1086L573.53 1094L580.55 1122L582.39 1135L585.98 1148L587.32 1159L590.04 1168L594.45 1193L599.56 1216L600.67 1230C601.52 1236.04 603.88 1236.76 604 1246C604.18 1261.17 606.17 1259.55 608.54 1273L609.52 1284L612.33 1294L613.89 1306L621.64 1332L624.1 1342L626.76 1349C628.62 1354.69 627.31 1355.28 631.04 1363C633.57 1368.23 635.47 1368.83 638.19 1373L652.04 1394C662.52 1407.7 670.27 1405.7 685 1407.17C688.5 1407.52 693.88 1409.15 697 1408.74C700.41 1408.29 702.07 1406.45 705 1405.56C711.88 1403.45 715.31 1408.03 720 1400C728.57 1401.58 727.73 1396.99 731.1 1391C737.17 1380.2 741.34 1368.73 745.27 1357L752.9 1322L757.65 1309L763.24 1283L766.33 1272L767.52 1263L769.46 1256L772.16 1231L775.49 1214L776.66 1206L779.56 1195L781.91 1184L784.62 1176L787.08 1163L787.08 1155L790.57 1141L796.82 1105L798.88 1097L800.67 1085L803.49 1074L804.51 1066L809.39 1045L812.25 1038L814.21 1022L824.01 975L828.72 955L830.67 943L838.5 910L840.67 897L845.5 877L850.45 852L858.5 817L861.01 803L868.5 771L870.67 758L878.5 725L888.5 678L894.23 650L901.72 618L903.67 606L915.72 552L922.28 522C922.96 518.9 924.56 513.3 928.05 512.34C932.31 511.16 934 516.97 934.56 520L940.25 551L943.58 567L946.28 584L948.54 593L951.28 611L953.54 620L956.28 637L958.54 646L961.09 663L965.08 683L968.58 700L971.28 717L973.54 726L976.08 743L979.58 760L982.09 776L984.54 786L987.09 802L989.75 814L992.3 833L993.41 840L993.41 848L996.21 878C996.91 882.47 999.7 886.05 1000.7 893L1001.29 903L1004.68 923L1006.43 939C1007.76 948.18 1008.91 947.75 1010.32 954L1011.3 964L1014.68 980L1015.46 988L1018.71 1004L1021.32 1028L1023.56 1038L1027.72 1066L1028.44 1074L1030.63 1083L1031.46 1091L1033.41 1099L1034.72 1113L1036.68 1124L1037.67 1132L1041.2 1147L1044.45 1166L1047.39 1174C1048.42 1177.91 1047.56 1182.08 1049.03 1185.91C1050.31 1189.26 1052.32 1190.18 1054.25 1194.01C1056.76 1199 1056.65 1202.99 1058.21 1207L1064.46 1219L1068.71 1234C1072.31 1243.72 1080.09 1250.97 1090 1253.96L1108.83 1259.29C1111.59 1259.43 1112.51 1257.64 1116.01 1257.68C1119.6 1257.73 1123.42 1259.99 1127 1259.27C1134.63 1257.74 1145.42 1245.99 1150 1240C1154.8 1233.74 1156.82 1234.36 1159.65 1229.95C1166.26 1219.63 1164.51 1216.47 1167.04 1208C1168.74 1202.31 1170.6 1200.65 1172.01 1197L1176.37 1181L1179.79 1166L1185.51 1152L1187.68 1141L1190.76 1131L1196.18 1107L1200.71 1095L1203.36 1082L1211.04 1048L1214.38 1039L1219.51 1015L1225.25 995L1226.29 985L1228.6 973L1232.34 958L1235.22 942L1237.68 934L1240.17 920L1242.45 913L1244.42 900L1247.38 888L1249.66 874L1257.83 845L1260.87 838C1263.15 831.55 1262.06 819.93 1269.11 815.84C1272.99 813.59 1276.91 816.83 1278.93 820.04C1280.97 823.3 1284.42 839.77 1285.78 845L1288.76 855L1291.09 866L1293.53 874L1295.56 887L1299.75 896L1303.61 910L1306.67 917L1308.56 923.83C1309.62 926.16 1312.52 928.62 1314.28 931.01C1318.32 936.54 1323.45 944.13 1330.09 946.99L1336.83 948.54C1339.12 949.32 1340.47 950.81 1343.04 951.19L1353 951.19L1362 951.87L1388 948.17L1445 942.83L1483 939.02L1520 935.37C1524.67 934.35 1528.81 931.4 1527.67 926C1526.67 921.26 1522.27 919.7 1518 919.17L1487 915.58L1366 900.83L1354 898C1352.2 889.75 1348.09 892.28 1344.61 884ZM357 910L358 911L358 910L357 910ZM340 956L341 957L341 956L340 956ZM347 957L348 958L348 957L347 957Z" />
</svg>