<svg xmlns="http://www.w3.org/2000/svg" viewBox="0 0 2004 1989" width="2004" height="1989">
	<style>
		tspan { white-space:pre }
		.shp0 { fill: #ffffff } 
	</style>
	<path id="Path 0" class="shp0" d="M1205.46,306.94c-2.22,1.04 -4.8,2.94 -5.72,4.23c-0.93,1.28 -2.12,4.81 -2.66,7.83c-0.54,3.02 -1.45,12.02 -2.02,20c-0.57,7.98 -1.95,31.38 -3.05,52c-1.11,20.63 -2.46,44.7 -3.02,53.5c-0.55,8.8 -2.79,47.5 -4.97,86c-2.18,38.5 -6.45,113.65 -9.5,167c-3.05,53.35 -7.1,123.55 -9,156c-1.9,32.45 -4.16,71.83 -5,87.5c-0.85,15.67 -2.66,46.95 -4.02,69.5c-1.37,22.55 -3.39,57.65 -4.48,78c-1.1,20.35 -2.68,48.25 -3.52,62c-0.84,13.75 -2.19,36.14 -3,49.75c-0.82,13.61 -1.71,25.2 -1.98,25.75c-0.28,0.55 -1.17,1 -2,1c-0.83,0 -1.7,-0.34 -1.94,-0.75c-0.24,-0.41 -1.59,-14.7 -3,-31.75c-1.41,-17.05 -3.7,-45.17 -5.09,-62.5c-1.39,-17.33 -4.09,-51.53 -6.01,-76c-1.91,-24.47 -4.36,-55.08 -5.44,-68c-1.08,-12.92 -2.89,-35.65 -4.02,-50.5c-1.13,-14.85 -2.75,-33.75 -3.59,-42c-1.01,-9.92 -2.19,-16.44 -3.47,-19.25c-1.07,-2.34 -2.95,-4.88 -4.19,-5.65c-1.24,-0.77 -5.17,-2.1 -8.75,-2.96c-3.58,-0.86 -8.75,-1.85 -11.5,-2.21c-3.37,-0.44 -6.14,-0.18 -8.5,0.77c-1.92,0.78 -4.7,2.97 -6.17,4.86c-1.47,1.89 -13.88,25.26 -27.57,51.94c-13.69,26.67 -26.15,50.52 -27.69,53c-1.53,2.48 -3.53,5.07 -4.43,5.77c-0.9,0.7 -2.77,1.28 -4.14,1.29c-1.4,0.01 -3.76,-1.2 -5.37,-2.77c-1.58,-1.53 -6.37,-7.96 -10.65,-14.29c-4.28,-6.33 -9.85,-13.41 -12.38,-15.75c-4.25,-3.93 -5.02,-4.25 -10.1,-4.25c-3.07,0 -9.04,1.11 -13.5,2.5c-6.58,2.06 -8.58,3.19 -11.25,6.39c-1.79,2.14 -8.26,12.6 -14.37,23.25c-6.12,10.65 -16.24,28.31 -22.5,39.26c-6.26,10.94 -12.5,20.75 -13.88,21.8c-1.37,1.05 -3.17,1.77 -4,1.6c-0.83,-0.17 -2.27,-1.88 -3.22,-3.8c-1.27,-2.59 -11.78,-83.96 -40.24,-311.5c-21.19,-169.4 -39.25,-312.5 -40.15,-318c-0.9,-5.5 -2.25,-11.24 -3.01,-12.75c-0.76,-1.51 -2.84,-3.64 -4.63,-4.72c-1.79,-1.09 -5.5,-2.24 -8.25,-2.57c-2.75,-0.33 -8.83,-0.11 -13.5,0.5c-6.4,0.83 -9.09,1.65 -10.88,3.32c-1.31,1.22 -3,3.69 -3.75,5.48c-0.75,1.79 -1.81,7.41 -2.36,12.5c-0.54,5.09 -1.91,25 -3.04,44.25c-1.13,19.25 -4.29,71.9 -7.03,117c-2.74,45.1 -6.32,104.73 -7.96,132.5c-1.64,27.77 -4.1,68.05 -5.47,89.5c-1.36,21.45 -3.4,55.2 -4.52,75c-1.12,19.8 -2.71,46.13 -3.51,58.5c-0.81,12.38 -3.05,48.83 -4.97,81c-1.93,32.17 -4.85,80.78 -6.48,108c-1.64,27.22 -3.89,65.03 -5,84c-1.11,18.97 -2.47,41.03 -3.03,49c-0.55,7.97 -1.34,15.54 -1.75,16.81c-0.43,1.31 -1.39,2.17 -2.25,1.99c-0.96,-0.2 -1.76,-2.11 -2.23,-5.31c-0.4,-2.74 -2.1,-24.79 -3.78,-48.99c-1.68,-24.2 -4.61,-66.05 -6.51,-93c-1.91,-26.95 -4.6,-65.87 -5.99,-86.5c-1.39,-20.62 -3.21,-44.25 -4.05,-52.5c-0.96,-9.37 -2.17,-16.29 -3.24,-18.44c-0.94,-1.89 -2.83,-4.25 -4.21,-5.25c-1.37,-1 -4.75,-2.43 -7.5,-3.18c-2.75,-0.75 -7.02,-1.94 -9.5,-2.65c-2.56,-0.73 -6.12,-1.01 -8.25,-0.64c-2.49,0.43 -4.96,1.91 -7.36,4.4c-1.99,2.06 -6.86,8.7 -10.82,14.75c-3.97,6.05 -11.19,17.52 -16.06,25.5c-4.86,7.98 -12.97,20.8 -18.02,28.5c-5.79,8.83 -10.16,14.46 -11.83,15.25c-1.46,0.69 -3.33,1.25 -4.15,1.25c-0.83,0 -3.17,-0.79 -5.22,-1.75c-2.04,-0.96 -18.81,-14.97 -37.25,-31.13c-18.44,-16.16 -35.9,-30.9 -38.78,-32.75c-2.89,-1.85 -6.49,-3.39 -8,-3.41c-1.51,-0.02 -3.25,0.54 -3.85,1.25c-0.72,0.85 -1.18,9.45 -1.34,24.79l-0.24,23.5c12.93,12.4 24.11,22.55 33.18,30.55c9.07,8 24.83,21.73 35.02,30.5c10.19,8.77 20.31,16.79 22.5,17.81c3.17,1.49 5.19,1.73 9.97,1.18c3.3,-0.37 8.36,-1.32 11.25,-2.11c4.15,-1.13 5.95,-2.33 8.6,-5.68c1.84,-2.34 7.52,-10.78 12.62,-18.75c5.1,-7.97 10.45,-15.75 11.9,-17.27c1.65,-1.74 3.65,-2.76 5.38,-2.75c1.99,0.02 3.03,0.71 3.75,2.52c0.55,1.38 1.44,7.34 1.98,13.25c0.54,5.91 1.46,17.95 2.04,26.75c0.58,8.8 2.6,37.6 4.49,64c1.89,26.4 4.14,58.58 5,71.5c0.86,12.92 2.89,41.72 4.5,64c1.61,22.28 4.52,63.22 6.47,91c1.94,27.78 5.31,76.15 7.49,107.5c2.18,31.35 4.44,65.55 5.03,76c0.59,10.45 1.73,26.09 2.54,34.75c0.81,8.66 1.76,16.54 2.12,17.5c0.36,0.96 1.71,3.21 3,5c1.29,1.79 3.59,3.86 5.1,4.61c1.51,0.75 4.77,1.63 7.25,1.97c2.48,0.33 8.33,0.17 13,-0.37c4.67,-0.53 10.41,-1.87 12.75,-2.97c3.09,-1.45 4.83,-3.16 6.36,-6.24c1.26,-2.54 2.65,-8.47 3.45,-14.75c0.73,-5.78 1.82,-23.55 2.42,-39.5c0.6,-15.95 1.97,-42.72 3.05,-59.5c1.08,-16.78 2.66,-42.65 3.51,-57.5c0.85,-14.85 3.1,-52.2 4.99,-83c1.89,-30.8 5.49,-90.2 7.99,-132c2.5,-41.8 7,-116.95 10,-167c3,-50.05 5.69,-93.48 5.98,-96.5c0.29,-3.02 1.43,-21.92 2.53,-42c1.1,-20.08 3.33,-57.87 4.96,-84c1.63,-26.12 3.65,-59.42 4.5,-74c0.85,-14.58 2.45,-40.9 3.57,-58.5c1.12,-17.6 2.24,-33.01 2.49,-34.25c0.29,-1.43 1.18,-2.25 2.46,-2.25c1.1,0 2.25,0.79 2.56,1.75c0.31,0.96 3.67,26.5 7.47,56.75c3.8,30.25 8.02,64 9.38,75c1.36,11 9.49,76.02 18.06,144.5c8.57,68.47 16.91,134.63 18.53,147c1.62,12.38 3.64,24.64 4.47,27.25c1.28,3.98 2.29,5.19 6.27,7.44c4.22,2.39 5.81,2.69 14.25,2.72c8.53,0.02 9.99,-0.25 14.25,-2.69c3.64,-2.08 5.78,-4.41 9.16,-9.97c2.42,-3.99 15.99,-27.72 30.15,-52.75c14.16,-25.03 27.45,-48.2 29.54,-51.5c2.09,-3.3 4.72,-6.56 5.85,-7.25c1.13,-0.69 3.4,-1.02 5.05,-0.75c1.99,0.33 4.14,1.94 6.38,4.75c1.86,2.34 7.21,10.1 11.88,17.25c6.81,10.41 9.27,13.38 12.37,14.9c3.36,1.65 5.24,1.82 14.37,1.25c7.44,-0.46 11.37,-1.18 13.5,-2.46c1.65,-0.99 4.2,-3.58 5.66,-5.75c1.46,-2.17 8.82,-15.87 16.35,-30.44c7.53,-14.58 15.11,-28.88 16.84,-31.79c1.73,-2.91 4.05,-5.55 5.15,-5.87c1.1,-0.32 2.56,-0.3 3.25,0.04c0.69,0.34 1.68,2.31 2.21,4.37c0.53,2.06 1.66,12.3 2.51,22.75c0.85,10.45 2.44,29.8 3.54,43c1.1,13.2 4.25,52.58 6.99,87.5c2.75,34.92 5.68,72.05 6.52,82.5c0.84,10.45 3.08,38.58 4.98,62.5c1.9,23.92 4.59,57.67 5.98,75c1.38,17.33 4.1,51.3 6.03,75.5c1.93,24.2 5.09,63.58 7.02,87.5c1.93,23.92 4.19,51.6 5.02,61.5c0.83,9.9 1.99,19.8 2.57,22c0.58,2.2 2.03,5.06 3.21,6.35c1.19,1.29 3.4,2.98 4.91,3.75c1.7,0.87 5.9,1.41 11,1.41c4.54,0.01 10.61,-0.67 13.5,-1.5c3.75,-1.08 5.95,-2.44 7.69,-4.76c1.34,-1.79 2.91,-5.39 3.5,-8c0.59,-2.61 1.97,-21.29 3.08,-41.5c1.11,-20.21 3.13,-55.87 4.5,-79.25c1.36,-23.37 4.73,-82.33 7.49,-131c2.76,-48.67 6.34,-110.78 7.96,-138c1.62,-27.22 3.43,-58.72 4.01,-70c0.59,-11.28 2.63,-46.83 4.54,-79c1.91,-32.17 5.96,-102.37 9.01,-156c3.05,-53.62 7.54,-133.05 9.99,-176.5c2.45,-43.45 4.89,-85.75 5.43,-94c0.54,-8.25 1.28,-19.95 1.64,-26c0.36,-6.05 1.05,-11.79 1.53,-12.75c0.48,-0.96 1.56,-1.75 2.38,-1.75c0.83,0 1.75,0.79 2.06,1.75c0.31,0.96 1.23,6.48 2.04,12.25c0.81,5.77 3.48,26.02 5.92,45c2.44,18.98 7.16,55.42 10.48,81c3.32,25.58 7.61,58.65 9.55,73.5c1.93,14.85 4.61,35.33 5.95,45.5c1.34,10.17 5.39,41.45 9,69.5c3.61,28.05 8.34,63.83 10.51,79.5c2.17,15.67 4.47,30.08 5.11,32c0.64,1.92 2.11,4.54 3.27,5.8c1.16,1.27 4.36,2.96 7.11,3.76c2.75,0.8 8.38,1.74 12.5,2.1c4.13,0.35 8.63,0.38 10,0.07c1.38,-0.31 3.97,-2.07 5.76,-3.9c2.04,-2.07 10.09,-16.86 21.41,-39.32c9.98,-19.8 22.62,-44.55 28.09,-55c5.46,-10.45 10.9,-20.02 12.09,-21.28c1.32,-1.39 3.31,-2.27 5.15,-2.26c2.3,0.01 4.2,1.25 8.12,5.28c2.81,2.89 10.45,12.01 16.98,20.26c6.53,8.25 14.26,17.48 17.18,20.5l5.32,5.5c102.33,-1.38 117.74,-1.89 118.72,-2.79c1.08,-1 0.87,-4.82 -1.23,-21.71c-1.4,-11.27 -3.02,-20.95 -3.61,-21.5c-0.64,-0.6 -16.14,-1.31 -38.77,-1.78c-20.74,-0.43 -41.98,-1.05 -47.2,-1.37l-9.5,-0.6c-8.53,-8.8 -18.2,-20.55 -27,-31.8c-8.8,-11.24 -19.09,-24.05 -22.86,-28.45c-3.78,-4.4 -8.05,-8.63 -9.5,-9.4c-1.98,-1.05 -5.14,-1.26 -12.64,-0.86c-5.86,0.32 -11.24,1.16 -13,2.04c-1.65,0.83 -3.73,2.34 -4.63,3.36c-0.9,1.02 -4.77,7.7 -8.6,14.85c-3.83,7.15 -11.83,22.45 -17.77,34c-5.94,11.55 -11.85,22.69 -13.15,24.75c-1.7,2.71 -3.05,3.75 -4.85,3.75c-1.78,0 -2.93,-0.87 -4,-3c-0.84,-1.69 -3.46,-17.56 -5.96,-36.25c-2.45,-18.29 -6.29,-47.42 -8.53,-64.75c-2.24,-17.33 -5.87,-45.45 -8.07,-62.5c-2.2,-17.05 -5.55,-42.92 -7.44,-57.5c-1.89,-14.58 -5.48,-42.25 -7.98,-61.5c-2.5,-19.25 -6.32,-48.5 -8.49,-65c-2.17,-16.5 -4.85,-36.98 -5.96,-45.5c-1.1,-8.52 -4.48,-34.62 -7.51,-58c-3.03,-23.37 -7.98,-61.62 -11.02,-85c-3.03,-23.37 -6.66,-50.82 -8.06,-61c-1.4,-10.18 -2.95,-20.07 -3.46,-22c-0.5,-1.93 -1.95,-4.82 -3.22,-6.43c-1.27,-1.61 -3.77,-3.52 -5.55,-4.25c-1.94,-0.79 -7.17,-1.31 -13,-1.3c-7.45,0.02 -10.7,0.47 -13.79,1.92z" />
</svg>