<?xml version="1.0" encoding="UTF-8" standalone="no"?>
<!DOCTYPE svg PUBLIC "-//W3C//DTD SVG 20010904//EN"
              "http://www.w3.org/TR/2001/REC-SVG-20010904/DTD/svg10.dtd">

<svg xmlns="http://www.w3.org/2000/svg"
     width="115.57mm" height="115.57mm"
     viewBox="0 0 1365 1365">
  <path id="Selection"
        fill="white" stroke="none" stroke-width="1"
        d="M 706.00,170.00
           C 702.40,172.50 702.46,176.88 701.29,181.00
             701.29,181.00 693.34,209.00 693.34,209.00
             693.34,209.00 690.33,216.00 690.33,216.00
             690.33,216.00 687.96,230.00 687.96,230.00
             687.96,230.00 684.30,243.00 684.30,243.00
             684.30,243.00 683.61,255.00 683.61,255.00
             683.61,255.00 679.45,267.00 679.45,267.00
             679.45,267.00 677.16,281.00 677.16,281.00
             677.16,281.00 675.32,289.00 675.32,289.00
             675.32,289.00 674.68,297.00 674.68,297.00
             674.68,297.00 670.43,313.28 670.43,313.28
             670.43,313.28 669.81,320.58 669.81,320.58
             669.81,320.58 666.74,331.00 666.74,331.00
             666.74,331.00 665.24,339.00 665.24,339.00
             665.24,339.00 658.10,370.00 658.10,370.00
             658.10,370.00 656.99,385.00 656.99,385.00
             656.99,385.00 651.68,414.00 651.68,414.00
             651.68,414.00 648.73,423.00 648.73,423.00
             648.73,423.00 646.16,441.00 646.16,441.00
             646.16,441.00 642.61,451.00 642.61,451.00
             642.61,451.00 641.20,462.00 641.20,462.00
             641.20,462.00 637.46,477.00 637.46,477.00
             637.46,477.00 633.40,501.04 633.40,501.04
             633.40,501.04 632.83,508.00 632.83,508.00
             632.83,508.00 628.44,526.00 628.44,526.00
             628.44,526.00 625.33,550.00 625.33,550.00
             622.81,563.44 621.72,560.83 619.30,569.00
             619.30,569.00 611.28,602.00 611.28,602.00
             611.28,602.00 608.83,622.00 608.83,622.00
             608.83,622.00 607.16,632.00 607.16,632.00
             607.16,632.00 606.31,641.83 606.31,641.83
             606.31,641.83 601.65,654.09 601.65,654.09
             601.65,654.09 599.54,674.00 599.54,674.00
             599.54,674.00 596.52,685.00 596.52,685.00
             596.52,685.00 595.79,693.00 595.79,693.00
             595.79,693.00 593.61,700.91 593.61,700.91
             593.61,700.91 592.93,707.09 592.93,707.09
             592.93,707.09 590.76,712.96 590.76,712.96
             590.76,712.96 586.82,730.00 586.82,730.00
             586.82,730.00 585.56,741.00 585.56,741.00
             585.56,741.00 583.51,750.00 583.51,750.00
             583.51,750.00 582.68,758.00 582.68,758.00
             582.68,758.00 579.61,772.00 579.61,772.00
             579.61,772.00 578.63,781.00 578.63,781.00
             578.63,781.00 576.30,793.73 576.30,793.73
             576.30,793.73 572.32,810.00 572.32,810.00
             572.32,810.00 571.54,821.00 571.54,821.00
             571.54,821.00 568.61,831.00 568.61,831.00
             568.61,831.00 567.25,839.00 567.25,839.00
             567.25,839.00 560.67,865.00 560.67,865.00
             560.67,865.00 556.38,889.00 556.38,889.00
             556.38,889.00 554.20,898.00 554.20,898.00
             554.20,898.00 551.82,921.00 551.82,921.00
             551.82,921.00 549.46,931.00 549.46,931.00
             549.46,931.00 546.57,949.00 546.57,949.00
             546.57,949.00 542.90,964.00 542.90,964.00
             542.90,964.00 539.77,972.00 539.77,972.00
             539.77,972.00 533.09,1002.00 533.09,1002.00
             533.09,1002.00 522.44,1041.00 522.44,1041.00
             520.76,1045.75 520.65,1051.25 515.95,1054.25
             512.09,1056.70 508.12,1054.73 505.22,1051.79
             503.51,1050.05 495.48,1032.26 494.21,1029.00
             492.78,1025.33 492.99,1021.10 492.13,1017.17
             492.13,1017.17 488.42,1005.00 488.42,1005.00
             488.42,1005.00 487.65,996.00 487.65,996.00
             487.65,996.00 485.00,984.00 485.00,984.00
             485.00,984.00 479.60,966.00 479.60,966.00
             479.60,966.00 477.96,957.00 477.96,957.00
             477.96,957.00 475.04,948.00 475.04,948.00
             475.04,948.00 473.12,939.00 473.12,939.00
             473.12,939.00 470.21,927.00 470.21,927.00
             470.21,927.00 469.47,920.00 469.47,920.00
             469.47,920.00 465.55,910.00 465.55,910.00
             465.55,910.00 464.74,902.00 464.74,902.00
             464.74,902.00 462.49,891.00 462.49,891.00
             462.49,891.00 454.41,862.00 454.41,862.00
             454.41,862.00 451.06,847.04 451.06,847.04
             451.06,847.04 446.92,834.00 446.92,834.00
             446.92,834.00 445.25,826.00 445.25,826.00
             445.25,826.00 442.52,817.00 442.52,817.00
             442.52,817.00 441.39,808.00 441.39,808.00
             441.39,808.00 435.42,789.00 435.42,789.00
             435.42,789.00 428.50,763.00 428.50,763.00
             428.50,763.00 425.85,751.00 425.85,751.00
             425.85,751.00 416.56,726.00 416.56,726.00
             416.56,726.00 409.92,703.00 409.92,703.00
             409.92,703.00 408.51,695.00 408.51,695.00
             408.51,695.00 405.22,687.00 405.22,687.00
             405.22,687.00 403.41,678.00 403.41,678.00
             403.41,678.00 400.03,666.00 400.03,666.00
             400.03,666.00 393.74,636.00 393.74,636.00
             393.74,636.00 391.45,630.00 391.45,630.00
             391.45,630.00 389.38,621.00 389.38,621.00
             389.38,621.00 386.63,614.00 386.63,614.00
             386.63,614.00 384.63,599.00 384.63,599.00
             384.63,599.00 379.90,584.72 379.90,584.72
             379.90,584.72 378.81,578.00 378.81,578.00
             378.81,578.00 375.33,566.00 375.33,566.00
             375.33,566.00 367.78,543.00 367.78,543.00
             367.78,543.00 366.36,535.00 366.36,535.00
             366.36,535.00 363.80,529.00 363.80,529.00
             363.80,529.00 361.87,522.00 361.87,522.00
             361.87,522.00 358.76,515.00 358.76,515.00
             358.76,515.00 356.09,507.00 356.09,507.00
             356.09,507.00 350.21,494.00 350.21,494.00
             350.21,494.00 347.25,484.00 347.25,484.00
             345.65,480.45 335.84,466.88 332.83,464.72
             330.37,462.96 326.86,462.40 324.00,461.22
             324.00,461.22 318.00,458.65 318.00,458.65
             314.84,458.02 311.89,459.76 309.00,460.76
             309.00,460.76 300.04,463.17 300.04,463.17
             292.93,466.95 292.85,474.84 290.02,481.00
             287.42,486.67 285.51,492.90 284.04,499.00
             284.04,499.00 282.37,507.00 282.37,507.00
             282.37,507.00 279.39,514.00 279.39,514.00
             279.39,514.00 276.37,525.00 276.37,525.00
             276.37,525.00 272.97,533.00 272.97,533.00
             272.97,533.00 267.05,558.42 267.05,558.42
             267.05,558.42 263.63,567.00 263.63,567.00
             263.63,567.00 262.49,574.00 262.49,574.00
             262.49,574.00 258.92,587.00 258.92,587.00
             258.92,587.00 257.51,594.83 257.51,594.83
             257.51,594.83 255.32,600.09 255.32,600.09
             255.32,600.09 249.46,621.00 249.46,621.00
             249.46,621.00 244.30,635.00 244.30,635.00
             244.30,635.00 239.32,656.00 239.32,656.00
             239.32,656.00 236.66,665.00 236.66,665.00
             236.66,665.00 234.37,677.00 234.37,677.00
             234.37,677.00 232.17,685.00 232.17,685.00
             232.17,685.00 230.59,695.00 230.59,695.00
             230.59,695.00 227.41,703.00 227.41,703.00
             227.41,703.00 225.66,714.00 225.66,714.00
             225.66,714.00 223.16,722.00 223.16,722.00
             223.16,722.00 220.00,737.00 220.00,737.00
             219.09,741.49 215.90,754.45 213.94,758.00
             210.56,764.14 203.21,769.32 196.00,769.35
             192.77,769.37 190.85,767.82 186.00,768.18
             186.00,768.18 162.00,772.72 162.00,772.72
             154.34,774.68 151.18,773.63 146.20,781.00
             144.63,783.32 143.53,785.19 143.14,788.00
             142.39,793.53 144.79,809.15 149.54,812.57
             152.38,814.61 155.25,813.50 160.00,814.78
             174.88,818.81 169.26,815.50 182.00,816.04
             182.00,816.04 204.00,818.00 204.00,818.00
             210.50,818.07 223.25,818.52 229.00,816.48
             248.45,809.59 255.61,788.95 260.95,771.00
             260.95,771.00 265.33,756.00 265.33,756.00
             265.33,756.00 266.81,744.42 266.81,744.42
             266.81,744.42 278.28,701.00 278.28,701.00
             278.28,701.00 281.63,690.00 281.63,690.00
             281.63,690.00 295.41,638.00 295.41,638.00
             295.41,638.00 298.92,621.00 298.92,621.00
             298.92,621.00 302.68,608.00 302.68,608.00
             302.68,608.00 306.61,600.00 306.61,600.00
             309.37,592.85 310.99,586.76 319.00,584.00
             319.00,584.00 324.11,592.04 324.11,592.04
             324.11,592.04 329.42,612.72 329.42,612.72
             329.42,612.72 333.24,624.00 333.24,624.00
             333.24,624.00 334.68,632.00 334.68,632.00
             334.68,632.00 336.43,637.00 336.43,637.00
             336.43,637.00 336.95,643.00 336.95,643.00
             336.95,643.00 339.33,651.00 339.33,651.00
             340.01,656.12 338.45,657.70 339.33,663.00
             339.33,663.00 343.95,680.00 343.95,680.00
             346.38,687.08 347.86,688.69 349.32,697.00
             350.48,703.58 347.62,704.65 348.57,710.00
             348.57,710.00 356.00,735.00 356.00,735.00
             356.00,735.00 358.01,754.00 358.01,754.00
             358.01,754.00 361.54,767.00 361.54,767.00
             361.54,767.00 364.56,782.96 364.56,782.96
             364.56,782.96 364.56,789.17 364.56,789.17
             364.56,789.17 372.91,820.00 372.91,820.00
             372.91,820.00 372.91,827.00 372.91,827.00
             372.91,827.00 375.71,838.00 375.71,838.00
             375.71,838.00 377.52,855.00 377.52,855.00
             377.52,855.00 381.38,868.00 381.38,868.00
             381.38,868.00 384.38,888.00 384.38,888.00
             385.46,892.29 387.57,893.88 388.87,898.00
             390.37,902.75 389.90,906.40 390.15,911.09
             390.15,911.09 397.09,945.72 397.09,945.72
             397.09,945.72 397.09,952.01 397.09,952.01
             397.09,952.01 399.63,961.00 399.63,961.00
             399.63,961.00 400.53,968.00 400.53,968.00
             400.53,968.00 405.49,986.00 405.49,986.00
             405.49,986.00 406.27,994.00 406.27,994.00
             406.27,994.00 408.82,1002.00 408.82,1002.00
             408.82,1002.00 411.37,1019.00 411.37,1019.00
             411.37,1019.00 416.19,1038.00 416.19,1038.00
             416.19,1038.00 418.51,1054.00 418.51,1054.00
             418.51,1054.00 422.56,1070.00 422.56,1070.00
             422.56,1070.00 423.32,1080.00 423.32,1080.00
             423.32,1080.00 425.04,1091.00 425.04,1091.00
             426.28,1097.44 427.90,1098.30 428.12,1106.00
             428.12,1106.00 428.12,1114.83 428.12,1114.83
             429.61,1122.65 433.00,1129.97 433.07,1138.09
             433.13,1144.46 435.26,1148.20 436.48,1154.00
             436.48,1154.00 437.38,1164.00 437.38,1164.00
             437.38,1164.00 442.49,1182.00 442.49,1182.00
             442.49,1182.00 450.32,1208.00 450.32,1208.00
             450.32,1208.00 452.47,1217.00 452.47,1217.00
             455.69,1225.48 458.19,1226.05 462.04,1232.00
             467.57,1240.55 472.17,1250.36 479.46,1257.67
             488.78,1267.03 496.70,1264.89 508.00,1266.29
             511.43,1266.71 518.43,1268.75 520.99,1268.37
             524.67,1267.82 526.61,1265.25 530.04,1264.42
             534.27,1263.40 537.08,1265.54 540.91,1263.23
             546.85,1259.65 557.94,1244.24 561.38,1238.00
             563.00,1235.06 563.30,1233.02 564.46,1230.00
             564.46,1230.00 571.39,1211.00 571.39,1211.00
             571.39,1211.00 572.46,1201.00 572.46,1201.00
             572.46,1201.00 576.81,1181.99 576.81,1181.99
             578.40,1175.34 580.34,1174.12 581.51,1170.00
             581.51,1170.00 582.52,1164.00 582.52,1164.00
             582.52,1164.00 584.99,1155.00 584.99,1155.00
             584.99,1155.00 587.29,1142.00 587.29,1142.00
             587.29,1142.00 590.53,1131.00 590.53,1131.00
             590.53,1131.00 591.38,1123.00 591.38,1123.00
             591.38,1123.00 593.47,1116.00 593.47,1116.00
             593.47,1116.00 594.21,1108.00 594.21,1108.00
             594.21,1108.00 595.79,1101.00 595.79,1101.00
             595.79,1101.00 596.44,1088.00 596.44,1088.00
             596.44,1088.00 599.63,1073.00 599.63,1073.00
             599.63,1073.00 600.51,1066.00 600.51,1066.00
             600.51,1066.00 604.08,1053.00 604.08,1053.00
             604.08,1053.00 605.68,1045.00 605.68,1045.00
             605.68,1045.00 608.18,1037.00 608.18,1037.00
             608.18,1037.00 610.83,1023.00 610.83,1023.00
             610.83,1023.00 611.52,1013.00 611.52,1013.00
             611.52,1013.00 613.71,1005.00 613.71,1005.00
             613.71,1005.00 616.29,989.00 616.29,989.00
             616.29,989.00 618.68,980.00 618.68,980.00
             618.68,980.00 619.44,973.00 619.44,973.00
             619.44,973.00 622.72,957.96 622.72,957.96
             622.72,957.96 624.46,946.00 624.46,946.00
             624.46,946.00 627.68,933.00 627.68,933.00
             627.68,933.00 628.32,926.00 628.32,926.00
             628.32,926.00 632.68,906.00 632.68,906.00
             632.68,906.00 636.13,898.00 636.13,898.00
             636.13,898.00 638.62,879.00 638.62,879.00
             638.62,879.00 644.36,852.00 644.36,852.00
             644.36,852.00 645.16,844.00 645.16,844.00
             645.16,844.00 647.96,830.00 647.96,830.00
             647.96,830.00 647.96,823.00 647.96,823.00
             649.36,814.80 653.69,806.32 653.00,798.00
             657.07,794.83 655.67,790.65 656.17,786.00
             656.62,781.87 658.07,777.93 659.33,774.00
             659.33,774.00 663.75,750.42 663.75,750.42
             663.75,750.42 665.69,743.00 665.69,743.00
             665.69,743.00 676.13,691.00 676.13,691.00
             676.13,691.00 679.70,676.00 679.70,676.00
             679.70,676.00 681.32,660.00 681.32,660.00
             681.32,660.00 683.54,651.00 683.54,651.00
             683.54,651.00 684.63,641.00 684.63,641.00
             684.63,641.00 688.03,631.00 688.03,631.00
             688.03,631.00 689.18,620.00 689.18,620.00
             689.18,620.00 691.31,609.00 691.31,609.00
             692.56,602.53 693.90,602.89 694.00,595.00
             694.10,586.68 694.39,580.20 696.44,572.00
             696.44,572.00 698.98,564.00 698.98,564.00
             698.98,564.00 700.46,557.17 700.46,557.17
             701.56,553.50 702.06,554.62 703.08,549.00
             703.08,549.00 704.51,539.00 704.51,539.00
             704.51,539.00 707.79,525.00 707.79,525.00
             707.79,525.00 709.22,510.00 709.22,510.00
             709.22,510.00 716.54,476.00 716.54,476.00
             716.54,476.00 718.37,458.00 718.37,458.00
             718.37,458.00 722.11,445.00 722.11,445.00
             722.11,445.00 724.23,432.09 724.23,432.09
             724.23,432.09 726.78,424.98 726.78,424.98
             726.78,424.98 726.78,419.58 726.78,419.58
             726.78,419.58 728.66,409.00 728.66,409.00
             728.66,409.00 731.70,398.00 731.70,398.00
             731.70,398.00 732.31,389.00 732.31,389.00
             732.99,386.04 734.54,384.63 735.42,382.00
             733.97,386.31 740.36,360.10 739.67,364.00
             739.67,364.00 740.33,357.00 740.33,357.00
             740.33,357.00 741.95,351.00 741.95,351.00
             743.86,342.42 744.66,330.74 751.33,324.23
             760.83,314.94 767.95,333.15 768.00,343.00
             768.00,343.00 768.00,347.00 768.00,347.00
             768.00,347.00 771.16,374.09 771.16,374.09
             771.16,374.09 775.41,395.00 775.41,395.00
             775.41,395.00 778.06,413.00 778.06,413.00
             778.06,413.00 778.06,421.00 778.06,421.00
             778.06,421.00 779.94,428.58 779.94,428.58
             779.94,428.58 782.00,452.00 782.00,452.00
             782.00,452.00 782.00,467.00 782.00,467.00
             782.02,478.70 783.50,475.30 784.82,482.99
             784.82,482.99 787.30,503.00 787.30,503.00
             787.30,503.00 791.20,524.00 791.20,524.00
             791.20,524.00 792.32,541.00 792.32,541.00
             793.91,550.51 795.98,550.53 796.00,563.00
             796.02,573.07 796.61,569.30 797.80,577.00
             797.80,577.00 802.09,606.00 802.09,606.00
             802.09,606.00 804.68,618.00 804.68,618.00
             804.68,618.00 805.22,625.00 805.22,625.00
             805.22,625.00 809.25,637.00 809.25,637.00
             809.25,637.00 811.32,653.00 811.32,653.00
             811.32,653.00 813.99,663.00 813.99,663.00
             813.99,663.00 813.99,674.00 813.99,674.00
             813.99,674.00 816.91,692.00 816.91,692.00
             816.91,692.00 818.09,718.00 818.09,718.00
             818.09,718.00 819.99,731.00 819.99,731.00
             819.99,731.00 819.99,738.00 819.99,738.00
             820.66,741.77 822.31,743.39 823.28,747.00
             823.28,747.00 825.96,763.00 825.96,763.00
             825.96,763.00 827.02,775.00 827.02,775.00
             827.02,775.00 829.11,784.00 829.11,784.00
             829.11,784.00 829.11,794.00 829.11,794.00
             829.11,794.00 835.69,822.00 835.69,822.00
             835.69,822.00 838.44,844.00 838.44,844.00
             838.44,844.00 842.54,862.00 842.54,862.00
             842.54,862.00 844.17,878.00 844.17,878.00
             844.17,878.00 850.72,917.00 850.72,917.00
             850.72,917.00 852.23,932.96 852.23,932.96
             852.23,932.96 854.79,944.00 854.79,944.00
             854.79,944.00 855.30,950.00 855.30,950.00
             855.30,950.00 857.03,958.00 857.03,958.00
             857.03,958.00 857.03,965.96 857.03,965.96
             857.03,965.96 859.15,974.04 859.15,974.04
             859.15,974.04 861.46,991.00 861.46,991.00
             861.46,991.00 865.76,1008.72 865.76,1008.72
             865.76,1008.72 868.07,1024.00 868.07,1024.00
             868.07,1024.00 871.18,1034.00 871.18,1034.00
             871.18,1034.00 873.12,1045.83 873.12,1045.83
             874.50,1049.55 876.89,1050.13 878.74,1055.00
             878.74,1055.00 882.81,1068.04 882.81,1068.04
             882.81,1068.04 891.79,1085.00 891.79,1085.00
             893.62,1089.35 892.43,1090.58 895.34,1095.00
             900.19,1102.35 910.12,1109.58 918.00,1113.49
             920.89,1114.92 931.01,1118.48 933.99,1118.27
             933.99,1118.27 938.58,1117.09 938.58,1117.09
             943.21,1116.38 947.46,1120.14 952.00,1118.69
             960.86,1115.86 969.43,1105.03 975.00,1098.04
             979.92,1091.89 985.99,1091.73 986.00,1082.00
             990.64,1078.45 989.64,1070.29 992.78,1063.00
             992.78,1063.00 996.28,1056.00 996.28,1056.00
             996.28,1056.00 997.60,1050.00 997.60,1050.00
             997.60,1050.00 1001.50,1036.00 1001.50,1036.00
             1001.50,1036.00 1003.71,1025.00 1003.71,1025.00
             1003.71,1025.00 1009.48,1012.00 1009.48,1012.00
             1009.48,1012.00 1012.44,998.00 1012.44,998.00
             1012.44,998.00 1018.81,972.42 1018.81,972.42
             1018.81,972.42 1024.65,955.00 1024.65,955.00
             1024.65,955.00 1027.46,941.00 1027.46,941.00
             1027.46,941.00 1029.67,934.00 1029.67,934.00
             1029.67,934.00 1033.18,915.09 1033.18,915.09
             1033.18,915.09 1035.72,905.00 1035.72,905.00
             1035.72,905.00 1038.45,899.00 1038.45,899.00
             1038.45,899.00 1039.75,892.00 1039.75,892.00
             1039.75,892.00 1045.81,866.00 1045.81,866.00
             1045.81,866.00 1049.29,856.00 1049.29,856.00
             1049.29,856.00 1051.15,840.00 1051.15,840.00
             1051.15,840.00 1053.12,830.00 1053.12,830.00
             1053.12,830.00 1055.47,822.00 1055.47,822.00
             1055.47,822.00 1056.37,815.00 1056.37,815.00
             1056.37,815.00 1059.51,801.00 1059.51,801.00
             1059.51,801.00 1062.61,792.00 1062.61,792.00
             1062.61,792.00 1064.04,780.00 1064.04,780.00
             1064.04,780.00 1066.62,772.00 1066.62,772.00
             1066.62,772.00 1068.61,759.00 1068.61,759.00
             1068.61,759.00 1071.64,746.91 1071.64,746.91
             1071.64,746.91 1073.21,736.00 1073.21,736.00
             1073.21,736.00 1080.38,710.00 1080.38,710.00
             1080.38,710.00 1082.00,704.00 1082.00,704.00
             1082.00,704.00 1085.44,697.00 1085.44,697.00
             1086.62,693.31 1085.22,690.98 1089.15,687.73
             1095.07,682.81 1099.37,685.76 1103.19,691.37
             1106.26,695.89 1110.90,713.08 1110.88,719.00
             1110.87,728.10 1115.74,725.22 1117.74,735.00
             1117.74,735.00 1119.56,747.00 1119.56,747.00
             1119.56,747.00 1124.23,757.00 1124.23,757.00
             1124.23,757.00 1127.95,770.17 1127.95,770.17
             1127.95,770.17 1130.87,777.00 1130.87,777.00
             1130.87,777.00 1132.51,782.91 1132.51,782.91
             1133.67,785.41 1136.34,787.63 1138.12,790.04
             1142.51,795.97 1145.87,802.28 1153.00,805.83
             1155.65,807.14 1157.57,806.76 1159.91,807.55
             1170.34,811.04 1160.45,810.91 1175.00,810.09
             1175.00,810.09 1186.00,810.86 1186.00,810.86
             1186.00,810.86 1195.00,809.09 1195.00,809.09
             1202.31,808.24 1209.90,808.25 1217.00,806.25
             1221.78,804.91 1229.27,802.27 1230.69,796.96
             1230.69,796.96 1231.28,791.00 1231.28,791.00
             1232.21,783.33 1232.79,775.23 1226.67,769.27
             1223.78,766.46 1221.23,766.48 1218.04,764.31
             1215.60,762.65 1213.87,760.01 1210.91,759.63
             1210.91,759.63 1188.00,759.63 1188.00,759.63
             1180.60,758.84 1179.68,755.17 1176.23,751.40
             1173.82,748.78 1171.45,749.21 1168.59,742.00
             1168.59,742.00 1160.82,713.00 1160.82,713.00
             1160.82,713.00 1158.41,706.00 1158.41,706.00
             1158.41,706.00 1155.73,690.00 1155.73,690.00
             1155.73,690.00 1152.19,681.00 1152.19,681.00
             1152.19,681.00 1150.10,670.00 1150.10,670.00
             1150.10,670.00 1147.50,661.00 1147.50,661.00
             1147.50,661.00 1141.90,636.00 1141.90,636.00
             1141.90,636.00 1138.86,620.00 1138.86,620.00
             1138.86,620.00 1133.63,610.00 1133.63,610.00
             1133.63,610.00 1131.61,602.00 1131.61,602.00
             1129.39,595.73 1122.06,585.57 1116.96,581.34
             1109.94,575.51 1102.32,576.04 1094.00,576.83
             1084.48,577.74 1086.83,575.57 1077.00,580.59
             1074.33,581.96 1069.93,583.94 1068.25,586.39
             1068.25,586.39 1065.59,592.00 1065.59,592.00
             1063.70,595.46 1061.38,597.37 1059.85,601.00
             1059.85,601.00 1057.25,611.00 1057.25,611.00
             1057.25,611.00 1052.94,623.00 1052.94,623.00
             1052.94,623.00 1048.92,632.00 1048.92,632.00
             1048.92,632.00 1042.91,649.00 1042.91,649.00
             1042.91,649.00 1039.07,658.00 1039.07,658.00
             1039.07,658.00 1029.33,688.00 1029.33,688.00
             1029.33,688.00 1026.27,695.00 1026.27,695.00
             1026.27,695.00 1022.59,706.00 1022.59,706.00
             1022.59,706.00 1018.83,720.91 1018.83,720.91
             1017.29,725.93 1014.49,727.14 1014.00,733.00
             1010.40,735.50 1010.46,739.88 1009.29,744.00
             1009.29,744.00 1006.54,753.99 1006.54,753.99
             1006.54,753.99 1005.81,759.42 1005.81,759.42
             1005.81,759.42 1002.80,766.00 1002.80,766.00
             1002.80,766.00 1001.06,772.00 1001.06,772.00
             1001.06,772.00 996.54,787.00 996.54,787.00
             996.54,787.00 989.23,805.00 989.23,805.00
             989.23,805.00 985.92,816.00 985.92,816.00
             985.92,816.00 971.09,859.00 971.09,859.00
             971.09,859.00 968.69,872.00 968.69,872.00
             968.69,872.00 964.16,887.00 964.16,887.00
             964.16,887.00 961.11,894.00 961.11,894.00
             961.11,894.00 956.90,907.00 956.90,907.00
             954.90,913.44 955.83,915.98 951.65,923.00
             949.12,927.25 944.50,932.15 939.00,930.67
             933.41,929.17 932.00,923.74 930.19,919.00
             926.63,909.64 923.17,893.05 922.17,883.00
             922.17,883.00 920.72,871.00 920.72,871.00
             920.72,871.00 918.29,860.00 918.29,860.00
             918.29,860.00 916.83,838.00 916.83,838.00
             916.83,838.00 914.28,823.00 914.28,823.00
             914.28,823.00 912.74,807.00 912.74,807.00
             912.74,807.00 909.32,789.00 909.32,789.00
             909.32,789.00 907.66,773.00 907.66,773.00
             906.61,767.47 905.70,769.94 904.28,758.00
             903.36,750.22 905.10,748.49 902.38,740.00
             898.73,728.61 900.04,725.39 898.56,716.00
             898.56,716.00 894.46,697.00 894.46,697.00
             894.46,697.00 893.55,687.01 893.55,687.01
             893.55,687.01 890.30,671.00 890.30,671.00
             890.30,671.00 889.78,663.00 889.78,663.00
             889.78,663.00 887.27,655.00 887.27,655.00
             887.27,655.00 885.29,640.00 885.29,640.00
             885.29,640.00 885.29,634.00 885.29,634.00
             885.29,634.00 883.67,627.00 883.67,627.00
             883.67,627.00 882.38,618.00 882.38,618.00
             882.38,618.00 880.32,609.00 880.32,609.00
             880.32,609.00 879.79,598.00 879.79,598.00
             879.79,598.00 877.92,591.00 877.92,591.00
             876.09,584.18 875.92,578.94 875.71,572.00
             875.53,566.03 872.81,560.70 871.53,555.00
             871.53,555.00 869.69,540.00 869.69,540.00
             867.47,528.07 866.16,531.04 866.00,517.00
             865.92,510.81 864.30,506.06 863.43,500.00
             863.43,500.00 861.75,481.00 861.75,481.00
             861.75,481.00 855.18,450.00 855.18,450.00
             855.18,450.00 853.72,432.00 853.72,432.00
             853.72,432.00 849.28,403.00 849.28,403.00
             849.28,403.00 847.83,387.00 847.83,387.00
             847.83,387.00 845.26,378.00 845.26,378.00
             845.26,378.00 842.90,362.00 842.90,362.00
             842.90,362.00 842.90,352.00 842.90,352.00
             842.90,352.00 840.54,342.00 840.54,342.00
             840.54,342.00 837.68,322.00 837.68,322.00
             837.68,322.00 835.28,309.00 835.28,309.00
             835.28,309.00 833.94,299.00 833.94,299.00
             833.94,299.00 833.94,291.00 833.94,291.00
             833.94,291.00 830.17,272.00 830.17,272.00
             830.17,272.00 828.60,251.61 828.60,251.61
             828.60,251.61 825.50,238.00 825.50,238.00
             825.50,238.00 822.28,221.00 822.28,221.00
             822.28,221.00 821.03,211.00 821.03,211.00
             820.23,207.50 817.65,204.87 816.53,200.00
             816.53,200.00 814.73,185.00 814.73,185.00
             814.73,185.00 809.91,164.00 809.91,164.00
             808.58,159.06 802.75,142.15 800.48,138.00
             800.48,138.00 793.64,128.00 793.64,128.00
             788.76,120.46 784.43,114.68 776.00,110.53
             776.00,110.53 761.00,105.13 761.00,105.13
             757.87,104.75 755.05,105.34 752.00,105.72
             752.00,105.72 745.00,106.63 745.00,106.63
             734.21,109.72 725.05,121.81 719.50,131.00
             719.50,131.00 712.84,143.00 712.84,143.00
             712.84,143.00 710.51,152.00 710.51,152.00
             708.91,157.93 705.65,163.76 706.00,170.00 Z
           M 840.00,839.00
           C 840.00,839.00 840.00,840.00 840.00,840.00
             840.00,840.00 839.00,839.00 839.00,839.00
             839.00,839.00 840.00,839.00 840.00,839.00 Z
           M 571.00,1207.00
           C 571.00,1207.00 571.00,1208.00 571.00,1208.00
             571.00,1208.00 570.00,1207.00 570.00,1207.00
             570.00,1207.00 571.00,1207.00 571.00,1207.00 Z" />
</svg>
