<svg xmlns="http://www.w3.org/2000/svg" viewBox="0 0 1600 1600" width="135.467mm" height="135.467mm">
	<style>
		tspan { white-space:pre }
		.shp0 { fill: #ffffff} 
	</style>
	<path id="Path 0" class="shp0" d="M 788.00,363.00
           C 782.09,366.32 780.77,372.72 779.87,379.00
             779.87,379.00 776.46,398.00 776.46,398.00
             776.46,398.00 775.54,406.00 775.54,406.00
             775.54,406.00 771.66,422.00 771.66,422.00
             771.66,422.00 766.34,447.00 766.34,447.00
             766.34,447.00 763.67,457.00 763.67,457.00
             763.67,457.00 762.41,465.00 762.41,465.00
             762.41,465.00 758.85,478.00 758.85,478.00
             758.02,481.47 759.31,482.69 758.85,486.00
             758.85,486.00 757.38,498.72 757.38,498.72
             757.38,498.72 755.44,505.84 755.44,505.84
             755.44,505.84 752.91,522.00 752.91,522.00
             752.91,522.00 749.39,533.00 749.39,533.00
             749.39,533.00 748.34,544.00 748.34,544.00
             748.34,544.00 743.91,560.00 743.91,560.00
             743.91,560.00 741.78,575.00 741.78,575.00
             741.78,575.00 738.09,589.00 738.09,589.00
             738.09,589.00 736.80,599.00 736.80,599.00
             736.80,599.00 735.21,606.00 735.21,606.00
             735.21,606.00 734.19,615.00 734.19,615.00
             734.19,615.00 729.27,636.00 729.27,636.00
             729.27,636.00 726.49,659.00 726.49,659.00
             724.19,670.32 722.77,670.09 720.22,678.00
             720.22,678.00 712.51,710.00 712.51,710.00
             712.51,710.00 711.68,719.00 711.68,719.00
             711.68,719.00 708.34,740.00 708.34,740.00
             708.34,740.00 707.73,749.00 707.73,749.00
             707.73,749.00 703.07,762.00 703.07,762.00
             703.07,762.00 701.57,775.00 701.57,775.00
             701.57,775.00 699.50,787.00 699.50,787.00
             699.50,787.00 697.32,795.00 697.32,795.00
             697.32,795.00 696.68,802.00 696.68,802.00
             696.68,802.00 694.52,810.00 694.52,810.00
             694.52,810.00 693.80,816.58 693.80,816.58
             693.80,816.58 691.64,822.01 691.64,822.01
             691.64,822.01 688.32,837.00 688.32,837.00
             688.32,837.00 685.81,854.00 685.81,854.00
             685.81,854.00 684.21,861.00 684.21,861.00
             684.21,861.00 683.63,867.00 683.63,867.00
             683.63,867.00 680.46,881.00 680.46,881.00
             680.46,881.00 678.58,896.00 678.58,896.00
             678.58,896.00 675.08,911.00 675.08,911.00
             675.08,911.00 672.98,927.28 672.98,927.28
             672.98,927.28 669.50,941.00 669.50,941.00
             669.50,941.00 667.49,952.00 667.49,952.00
             667.49,952.00 665.23,959.00 665.23,959.00
             665.23,959.00 663.83,966.00 663.83,966.00
             663.83,966.00 658.30,990.00 658.30,990.00
             658.30,990.00 657.38,998.00 657.38,998.00
             657.38,998.00 654.28,1014.00 654.28,1014.00
             654.28,1014.00 650.49,1043.00 650.49,1043.00
             650.49,1043.00 644.09,1072.00 644.09,1072.00
             644.09,1072.00 640.24,1083.00 640.24,1083.00
             640.24,1083.00 629.28,1131.00 629.28,1131.00
             629.28,1131.00 625.79,1144.00 625.79,1144.00
             625.79,1144.00 622.29,1154.00 622.29,1154.00
             622.29,1154.00 619.98,1165.00 619.98,1165.00
             618.34,1168.23 613.98,1172.48 610.00,1171.34
             600.28,1168.56 601.59,1150.70 597.16,1142.00
             592.69,1133.21 594.69,1132.59 592.70,1124.00
             592.70,1124.00 588.96,1113.28 588.96,1113.28
             588.96,1113.28 587.34,1100.00 587.34,1100.00
             587.34,1100.00 580.49,1074.00 580.49,1074.00
             580.49,1074.00 578.22,1063.00 578.22,1063.00
             578.22,1063.00 575.66,1055.00 575.66,1055.00
             575.66,1055.00 572.04,1040.00 572.04,1040.00
             572.04,1040.00 570.45,1029.00 570.45,1029.00
             570.45,1029.00 566.38,1018.00 566.38,1018.00
             566.38,1018.00 563.30,998.83 563.30,998.83
             563.30,998.83 558.28,982.00 558.28,982.00
             558.28,982.00 550.38,950.00 550.38,950.00
             550.38,950.00 548.30,944.00 548.30,944.00
             548.30,944.00 542.67,922.00 542.67,922.00
             542.67,922.00 541.39,914.00 541.39,914.00
             541.39,914.00 529.01,870.00 529.01,870.00
             529.01,870.00 526.83,860.00 526.83,860.00
             526.83,860.00 519.00,840.00 519.00,840.00
             519.00,840.00 514.09,822.00 514.09,822.00
             514.09,822.00 511.49,814.00 511.49,814.00
             511.49,814.00 509.38,804.00 509.38,804.00
             509.38,804.00 506.30,796.00 506.30,796.00
             506.30,796.00 504.42,787.00 504.42,787.00
             504.42,787.00 496.25,755.28 496.25,755.28
             496.25,755.28 494.77,745.00 494.77,745.00
             494.77,745.00 492.23,738.00 492.23,738.00
             492.23,738.00 489.55,728.00 489.55,728.00
             489.55,728.00 487.36,722.04 487.36,722.04
             487.36,722.04 485.53,708.58 485.53,708.58
             485.53,708.58 480.94,693.00 480.94,693.00
             480.94,693.00 477.91,680.00 477.91,680.00
             477.91,680.00 471.40,661.00 471.40,661.00
             471.40,661.00 466.46,643.00 466.46,643.00
             466.46,643.00 464.36,638.00 464.36,638.00
             464.36,638.00 462.60,631.00 462.60,631.00
             462.60,631.00 459.59,624.00 459.59,624.00
             459.59,624.00 455.08,611.00 455.08,611.00
             455.08,611.00 451.64,604.00 451.64,604.00
             451.64,604.00 447.41,592.00 447.41,592.00
             445.46,587.37 436.97,575.62 432.91,573.08
             432.91,573.08 417.83,567.34 417.83,567.34
             415.10,567.12 412.56,568.63 410.00,569.38
             404.65,570.96 401.12,569.88 396.13,576.58
             392.62,581.29 393.70,584.19 391.74,589.00
             391.74,589.00 385.77,605.00 385.77,605.00
             385.77,605.00 383.22,616.00 383.22,616.00
             383.22,616.00 378.02,631.00 378.02,631.00
             378.02,631.00 373.92,642.00 373.92,642.00
             373.92,642.00 369.66,658.00 369.66,658.00
             369.66,658.00 367.70,668.00 367.70,668.00
             367.70,668.00 364.63,676.00 364.63,676.00
             364.63,676.00 361.98,689.00 361.98,689.00
             361.98,689.00 351.41,727.00 351.41,727.00
             351.41,727.00 345.51,743.00 345.51,743.00
             345.51,743.00 339.96,766.00 339.96,766.00
             339.96,766.00 333.51,792.00 333.51,792.00
             333.51,792.00 332.24,802.00 332.24,802.00
             332.24,802.00 328.97,811.00 328.97,811.00
             328.97,811.00 326.50,823.00 326.50,823.00
             326.50,823.00 320.42,848.00 320.42,848.00
             318.26,857.81 315.84,867.09 307.00,873.09
             297.82,879.32 276.37,879.58 265.08,880.67
             265.08,880.67 253.00,882.83 253.00,882.83
             253.00,882.83 185.00,890.73 185.00,890.73
             185.00,890.73 155.00,894.17 155.00,894.17
             150.73,894.70 146.33,896.26 145.33,901.00
             144.31,905.86 147.64,908.93 152.00,910.02
             152.00,910.02 181.00,913.28 181.00,913.28
             181.00,913.28 238.00,919.28 238.00,919.28
             259.99,921.90 281.82,924.97 304.00,925.00
             319.26,925.02 327.12,928.73 340.96,917.59
             346.24,913.34 354.53,900.36 357.21,894.00
             357.21,894.00 366.27,863.04 366.27,863.04
             366.27,863.04 367.88,851.42 367.88,851.42
             367.88,851.42 381.05,803.04 381.05,803.04
             381.05,803.04 389.84,766.00 389.84,766.00
             389.84,766.00 396.32,745.00 396.32,745.00
             396.32,745.00 400.16,727.00 400.16,727.00
             400.16,727.00 407.35,702.00 407.35,702.00
             408.42,697.37 411.49,683.06 418.90,686.28
             422.91,688.03 425.49,696.97 426.95,701.00
             430.09,709.70 429.44,715.33 431.45,723.00
             431.45,723.00 433.85,730.00 433.85,730.00
             435.87,736.64 437.31,743.15 438.18,750.00
             438.18,750.00 440.68,760.00 440.68,760.00
             441.63,765.75 440.14,767.94 443.17,780.01
             443.17,780.01 451.49,808.00 451.49,808.00
             451.49,808.00 454.41,828.00 454.41,828.00
             454.41,828.00 458.91,850.00 458.91,850.00
             458.91,850.00 464.26,884.00 464.26,884.00
             464.26,884.00 465.75,888.72 465.75,888.72
             465.75,888.72 465.75,896.00 465.75,896.00
             465.75,896.00 471.68,918.00 471.68,918.00
             472.50,921.90 471.87,927.21 475.00,930.00
             475.00,930.00 475.00,932.00 475.00,932.00
             475.00,932.00 473.00,932.00 473.00,932.00
             474.97,937.52 476.98,943.14 477.79,949.00
             477.79,949.00 478.30,961.00 478.30,961.00
             478.30,961.00 483.33,979.00 483.33,979.00
             483.33,979.00 485.30,995.00 485.30,995.00
             486.82,1001.26 488.53,999.17 491.12,1011.00
             492.58,1017.70 491.54,1019.28 492.32,1024.00
             492.32,1024.00 496.68,1044.00 496.68,1044.00
             496.68,1044.00 498.37,1055.00 498.37,1055.00
             498.37,1057.38 498.00,1058.28 498.37,1061.00
             498.37,1061.00 505.49,1088.00 505.49,1088.00
             505.49,1088.00 507.39,1102.00 507.39,1102.00
             508.11,1105.36 510.09,1108.73 511.10,1115.00
             511.10,1115.00 512.32,1126.00 512.32,1126.00
             512.32,1126.00 515.16,1135.00 515.16,1135.00
             515.16,1135.00 519.00,1157.00 519.00,1157.00
             519.00,1157.00 524.56,1183.00 524.56,1183.00
             524.56,1183.00 525.67,1197.00 525.67,1197.00
             526.61,1203.66 528.95,1203.21 529.00,1214.00
             529.07,1228.18 532.00,1229.01 534.03,1240.84
             534.03,1240.84 534.03,1248.01 534.03,1248.01
             534.03,1248.01 537.54,1262.00 537.54,1262.00
             537.54,1262.00 538.46,1271.00 538.46,1271.00
             538.46,1271.00 546.99,1300.00 546.99,1300.00
             546.99,1300.00 549.40,1310.00 549.40,1310.00
             549.40,1310.00 552.06,1317.00 552.06,1317.00
             553.71,1322.75 553.11,1324.69 556.52,1330.96
             556.52,1330.96 562.70,1339.04 562.70,1339.04
             562.70,1339.04 566.67,1346.00 566.67,1346.00
             566.67,1346.00 572.26,1354.00 572.26,1354.00
             579.24,1364.21 585.41,1372.83 599.00,1373.14
             599.00,1373.14 608.00,1373.14 608.00,1373.14
             608.00,1373.14 621.00,1375.71 621.00,1375.71
             626.05,1375.49 627.55,1372.05 635.00,1371.60
             640.82,1371.24 641.60,1372.82 645.00,1367.00
             653.57,1368.58 652.73,1363.99 656.10,1358.00
             661.62,1348.18 661.79,1345.79 665.59,1336.00
             665.59,1336.00 669.93,1325.00 669.93,1325.00
             672.82,1316.29 671.02,1319.58 672.27,1313.72
             672.27,1313.72 677.90,1289.00 677.90,1289.00
             677.90,1289.00 682.51,1276.00 682.51,1276.00
             682.51,1276.00 687.33,1253.83 687.33,1253.83
             687.33,1253.83 691.05,1240.00 691.05,1240.00
             691.05,1240.00 692.51,1230.00 692.51,1230.00
             692.51,1230.00 694.46,1223.00 694.46,1223.00
             694.46,1223.00 697.16,1198.00 697.16,1198.00
             697.16,1198.00 700.49,1181.00 700.49,1181.00
             700.49,1181.00 701.66,1173.00 701.66,1173.00
             701.66,1173.00 704.55,1162.00 704.55,1162.00
             704.55,1162.00 706.30,1153.00 706.30,1153.00
             706.30,1153.00 709.45,1143.28 709.45,1143.28
             709.45,1143.28 712.08,1130.00 712.08,1130.00
             712.08,1130.00 712.08,1122.00 712.08,1122.00
             712.08,1122.00 715.70,1106.96 715.70,1106.96
             715.70,1106.96 721.62,1073.00 721.62,1073.00
             721.62,1073.00 724.07,1063.00 724.07,1063.00
             724.07,1063.00 725.46,1053.00 725.46,1053.00
             725.46,1053.00 728.49,1041.00 728.49,1041.00
             728.49,1041.00 729.51,1033.00 729.51,1033.00
             729.51,1033.00 734.39,1012.00 734.39,1012.00
             734.39,1012.00 737.25,1005.00 737.25,1005.00
             737.25,1005.00 738.67,991.00 738.67,991.00
             738.67,991.00 753.72,922.00 753.72,922.00
             753.72,922.00 755.67,910.00 755.67,910.00
             755.67,910.00 763.50,877.00 763.50,877.00
             763.50,877.00 765.67,864.00 765.67,864.00
             765.67,864.00 770.50,844.00 770.50,844.00
             770.50,844.00 775.45,819.00 775.45,819.00
             775.45,819.00 783.50,784.00 783.50,784.00
             783.50,784.00 786.01,770.00 786.01,770.00
             786.01,770.00 793.50,738.00 793.50,738.00
             793.50,738.00 795.67,725.00 795.67,725.00
             795.67,725.00 803.50,692.00 803.50,692.00
             803.50,692.00 813.50,645.00 813.50,645.00
             813.50,645.00 819.23,617.00 819.23,617.00
             819.23,617.00 826.72,585.00 826.72,585.00
             826.72,585.00 828.67,573.00 828.67,573.00
             828.67,573.00 840.72,519.00 840.72,519.00
             840.72,519.00 847.28,489.00 847.28,489.00
             847.96,485.90 849.56,480.30 853.05,479.34
             857.31,478.16 859.00,483.97 859.56,487.00
             859.56,487.00 865.25,518.00 865.25,518.00
             865.25,518.00 868.58,534.00 868.58,534.00
             868.58,534.00 871.28,551.00 871.28,551.00
             871.28,551.00 873.54,560.00 873.54,560.00
             873.54,560.00 876.28,578.00 876.28,578.00
             876.28,578.00 878.54,587.00 878.54,587.00
             878.54,587.00 881.28,604.00 881.28,604.00
             881.28,604.00 883.54,613.00 883.54,613.00
             883.54,613.00 886.09,630.00 886.09,630.00
             886.09,630.00 890.08,650.00 890.08,650.00
             890.08,650.00 893.58,667.00 893.58,667.00
             893.58,667.00 896.28,684.00 896.28,684.00
             896.28,684.00 898.54,693.00 898.54,693.00
             898.54,693.00 901.08,710.00 901.08,710.00
             901.08,710.00 904.58,727.00 904.58,727.00
             904.58,727.00 907.09,743.00 907.09,743.00
             907.09,743.00 909.54,753.00 909.54,753.00
             909.54,753.00 912.09,769.00 912.09,769.00
             912.09,769.00 914.75,781.00 914.75,781.00
             914.75,781.00 917.44,800.28 917.44,800.28
             917.44,800.28 918.41,807.00 918.41,807.00
             918.41,807.00 918.41,815.00 918.41,815.00
             918.41,815.00 921.21,845.00 921.21,845.00
             921.21,845.00 925.68,859.00 925.68,859.00
             925.68,859.00 926.21,869.00 926.21,869.00
             926.21,869.00 927.99,876.00 927.99,876.00
             927.99,876.00 927.99,883.00 927.99,883.00
             927.99,883.00 929.82,891.00 929.82,891.00
             929.82,891.00 931.75,908.00 931.75,908.00
             931.75,908.00 936.08,924.00 936.08,924.00
             936.08,924.00 938.32,941.00 938.32,941.00
             938.32,941.00 940.15,947.58 940.15,947.58
             940.15,947.58 940.15,954.00 940.15,954.00
             940.15,954.00 943.71,971.00 943.71,971.00
             943.71,971.00 944.44,981.00 944.44,981.00
             944.44,981.00 948.56,1005.00 948.56,1005.00
             948.56,1005.00 955.63,1050.00 955.63,1050.00
             955.63,1050.00 956.46,1058.00 956.46,1058.00
             956.46,1058.00 958.68,1067.00 958.68,1067.00
             958.68,1067.00 960.09,1082.00 960.09,1082.00
             960.09,1082.00 967.10,1117.58 967.10,1117.58
             967.10,1117.58 969.45,1133.00 969.45,1133.00
             969.45,1133.00 972.39,1141.00 972.39,1141.00
             973.42,1144.93 972.56,1149.10 974.01,1152.83
             974.01,1152.83 979.25,1161.00 979.25,1161.00
             981.79,1166.12 981.68,1170.13 983.21,1174.00
             983.21,1174.00 989.49,1186.00 989.49,1186.00
             989.49,1186.00 993.71,1201.00 993.71,1201.00
             997.44,1211.08 1005.65,1218.45 1016.00,1221.24
             1016.00,1221.24 1034.00,1225.92 1034.00,1225.92
             1036.35,1225.93 1037.85,1224.41 1041.00,1224.44
             1044.53,1224.48 1048.65,1226.89 1052.00,1226.26
             1059.61,1224.83 1071.22,1212.09 1075.66,1206.02
             1080.36,1199.58 1081.75,1201.26 1084.65,1196.89
             1090.45,1188.18 1089.56,1183.32 1092.04,1175.00
             1093.74,1169.31 1095.60,1167.65 1097.01,1164.00
             1097.01,1164.00 1102.12,1145.00 1102.12,1145.00
             1102.12,1145.00 1104.67,1133.00 1104.67,1133.00
             1104.67,1133.00 1110.23,1120.00 1110.23,1120.00
             1110.23,1120.00 1112.68,1108.00 1112.68,1108.00
             1112.68,1108.00 1115.76,1098.00 1115.76,1098.00
             1115.76,1098.00 1121.37,1073.00 1121.37,1073.00
             1121.37,1073.00 1125.96,1061.00 1125.96,1061.00
             1125.96,1061.00 1135.67,1016.00 1135.67,1016.00
             1135.67,1016.00 1139.38,1006.00 1139.38,1006.00
             1139.38,1006.00 1144.75,981.00 1144.75,981.00
             1144.75,981.00 1147.57,970.00 1147.57,970.00
             1147.57,970.00 1150.48,961.00 1150.48,961.00
             1150.48,961.00 1152.40,946.00 1152.40,946.00
             1152.40,946.00 1157.09,926.00 1157.09,926.00
             1157.09,926.00 1160.45,908.00 1160.45,908.00
             1160.45,908.00 1162.45,902.00 1162.45,902.00
             1162.45,902.00 1165.17,887.00 1165.17,887.00
             1165.17,887.00 1167.45,880.00 1167.45,880.00
             1167.45,880.00 1169.42,867.00 1169.42,867.00
             1169.42,867.00 1171.88,857.00 1171.88,857.00
             1171.88,857.00 1174.66,841.00 1174.66,841.00
             1174.66,841.00 1178.22,829.00 1178.22,829.00
             1178.22,829.00 1179.72,822.00 1179.72,822.00
             1179.72,822.00 1185.20,806.00 1185.20,806.00
             1187.38,799.64 1187.52,786.66 1194.11,782.84
             1197.99,780.59 1201.91,783.83 1203.93,787.04
             1205.96,790.27 1209.62,807.67 1211.02,813.00
             1211.02,813.00 1213.76,822.00 1213.76,822.00
             1213.76,822.00 1216.09,833.00 1216.09,833.00
             1216.09,833.00 1218.53,841.00 1218.53,841.00
             1218.53,841.00 1220.70,853.91 1220.70,853.91
             1221.93,858.07 1223.46,857.82 1225.28,863.91
             1225.28,863.91 1228.32,876.00 1228.32,876.00
             1228.32,876.00 1231.75,884.00 1231.75,884.00
             1232.54,886.28 1232.82,888.87 1233.98,890.96
             1235.17,893.10 1236.82,894.39 1238.32,896.25
             1243.07,902.15 1248.36,911.25 1256.00,914.10
             1258.17,914.91 1260.16,914.71 1261.49,915.05
             1263.93,915.69 1265.05,917.42 1268.04,917.90
             1268.04,917.90 1276.66,917.90 1276.66,917.90
             1276.66,917.90 1287.72,918.69 1287.72,918.69
             1287.72,918.69 1313.00,915.17 1313.00,915.17
             1313.00,915.17 1406.00,906.17 1406.00,906.17
             1406.00,906.17 1441.00,902.91 1441.00,902.91
             1445.74,902.56 1451.51,901.49 1452.67,896.00
             1453.68,891.22 1450.26,887.95 1446.00,886.72
             1446.00,886.72 1414.00,882.84 1414.00,882.84
             1414.00,882.84 1362.00,876.28 1362.00,876.28
             1362.00,876.28 1306.00,869.72 1306.00,869.72
             1306.00,869.72 1289.00,867.52 1289.00,867.52
             1283.92,866.50 1284.38,865.43 1278.00,865.00
             1277.29,856.45 1273.06,859.89 1269.56,851.00
             1266.99,844.50 1265.74,837.67 1264.19,830.91
             1264.19,830.91 1259.90,816.00 1259.90,816.00
             1259.90,816.00 1255.79,797.00 1255.79,797.00
             1255.79,797.00 1253.20,790.00 1253.20,790.00
             1253.20,790.00 1250.30,776.00 1250.30,776.00
             1250.30,776.00 1245.51,757.00 1245.51,757.00
             1245.51,757.00 1240.06,729.04 1240.06,729.04
             1238.55,724.09 1236.59,724.20 1234.67,718.00
             1231.44,707.59 1227.73,697.83 1218.83,690.61
             1209.83,683.31 1193.54,683.37 1183.00,687.09
             1179.59,688.30 1172.97,691.24 1170.53,693.78
             1168.88,695.51 1167.85,698.76 1166.52,701.00
             1166.52,701.00 1161.30,709.00 1161.30,709.00
             1161.30,709.00 1157.29,723.00 1157.29,723.00
             1157.29,723.00 1150.63,739.00 1150.63,739.00
             1150.63,739.00 1143.91,758.00 1143.91,758.00
             1143.91,758.00 1138.24,772.00 1138.24,772.00
             1138.24,772.00 1135.30,782.00 1135.30,782.00
             1135.30,782.00 1123.89,814.00 1123.89,814.00
             1123.89,814.00 1119.77,829.00 1119.77,829.00
             1119.77,829.00 1112.05,846.00 1112.05,846.00
             1112.05,846.00 1103.55,878.00 1103.55,878.00
             1103.55,878.00 1100.61,885.00 1100.61,885.00
             1100.61,885.00 1097.77,895.00 1097.77,895.00
             1097.77,895.00 1094.60,902.00 1094.60,902.00
             1094.60,902.00 1089.44,916.00 1089.44,916.00
             1089.44,916.00 1083.88,933.96 1083.88,933.96
             1083.88,933.96 1080.68,940.17 1080.68,940.17
             1080.68,940.17 1077.45,952.00 1077.45,952.00
             1077.45,952.00 1073.20,965.00 1073.20,965.00
             1073.20,965.00 1069.48,982.00 1069.48,982.00
             1069.48,982.00 1066.59,990.00 1066.59,990.00
             1066.59,990.00 1061.34,1006.00 1061.34,1006.00
             1058.54,1014.70 1056.65,1023.80 1052.66,1032.00
             1049.89,1037.71 1048.94,1049.35 1042.00,1051.34
             1036.82,1052.83 1033.59,1047.18 1032.63,1043.00
             1032.63,1043.00 1026.72,1008.00 1026.72,1008.00
             1026.72,1008.00 1024.28,998.00 1024.28,998.00
             1024.28,998.00 1021.96,981.00 1021.96,981.00
             1021.96,981.00 1018.74,964.00 1018.74,964.00
             1018.74,964.00 1017.83,947.00 1017.83,947.00
             1017.83,947.00 1015.28,932.00 1015.28,932.00
             1015.28,932.00 1013.57,917.00 1013.57,917.00
             1013.57,917.00 1010.30,897.00 1010.30,897.00
             1010.30,897.00 1008.70,882.00 1008.70,882.00
             1007.40,874.18 1004.91,870.58 1004.86,860.83
             1004.80,848.55 1001.98,845.90 1000.32,836.00
             1000.32,836.00 998.84,822.00 998.84,822.00
             998.84,822.00 995.44,805.00 995.44,805.00
             995.44,805.00 993.72,790.00 993.72,790.00
             993.72,790.00 991.42,779.00 991.42,779.00
             991.42,779.00 990.25,770.00 990.25,770.00
             990.25,770.00 988.09,762.00 988.09,762.00
             988.09,762.00 986.42,749.00 986.42,749.00
             986.42,749.00 986.42,742.00 986.42,742.00
             986.42,742.00 981.30,716.00 981.30,716.00
             981.30,716.00 980.67,707.00 980.67,707.00
             980.67,707.00 977.29,692.00 977.29,692.00
             977.29,692.00 975.70,675.00 975.70,675.00
             975.70,675.00 972.46,663.00 972.46,663.00
             972.46,663.00 970.45,647.96 970.45,647.96
             970.45,647.96 967.08,634.00 967.08,634.00
             967.08,634.00 967.08,625.00 967.08,625.00
             967.08,625.00 964.04,608.00 964.04,608.00
             964.04,608.00 964.04,600.00 964.04,600.00
             964.04,600.00 962.25,588.00 962.25,588.00
             962.25,588.00 956.15,559.00 956.15,559.00
             956.15,559.00 954.83,541.00 954.83,541.00
             954.83,541.00 950.30,511.00 950.30,511.00
             950.30,511.00 949.70,502.00 949.70,502.00
             949.70,502.00 946.44,487.00 946.44,487.00
             946.44,487.00 943.30,468.00 943.30,468.00
             943.30,468.00 942.78,457.00 942.78,457.00
             942.78,457.00 940.32,446.00 940.32,446.00
             940.32,446.00 938.85,432.00 938.85,432.00
             938.85,432.00 936.29,418.00 936.29,418.00
             936.29,418.00 934.82,401.00 934.82,401.00
             934.82,401.00 931.29,383.00 931.29,383.00
             931.29,383.00 930.65,368.91 930.65,368.91
             930.65,368.91 924.51,337.00 924.51,337.00
             924.51,337.00 922.32,326.00 922.32,326.00
             922.32,326.00 921.59,319.00 921.59,319.00
             921.59,319.00 917.96,310.42 917.96,310.42
             917.96,310.42 914.78,289.00 914.78,289.00
             914.78,289.00 912.75,282.58 912.75,282.58
             912.75,282.58 911.48,275.00 911.48,275.00
             910.44,270.43 903.04,249.63 901.09,246.00
             898.81,241.77 889.94,229.45 886.42,226.02
             880.65,220.38 877.16,219.47 870.00,216.90
             866.64,215.69 863.57,213.42 860.00,213.22
             860.00,213.22 854.00,213.83 854.00,213.83
             851.51,214.08 849.47,213.92 847.00,214.64
             838.86,216.98 829.02,227.25 824.21,234.00
             820.87,238.68 817.02,244.76 814.71,250.00
             812.07,255.98 812.52,257.90 810.91,263.00
             810.91,263.00 801.42,293.00 801.42,293.00
             801.42,293.00 798.30,305.00 798.30,305.00
             798.30,305.00 794.32,318.00 794.32,318.00
             794.32,318.00 791.41,325.00 791.41,325.00
             790.63,328.25 791.48,330.10 790.13,335.00
             787.59,344.17 783.14,353.75 788.00,363.00 Z
           M 1283.00,866.00
           C 1283.00,866.00 1283.00,867.00 1283.00,867.00
             1283.00,867.00 1282.00,866.00 1282.00,866.00
             1282.00,866.00 1283.00,866.00 1283.00,866.00 Z" />
</svg>